<?xml version="1.0" encoding="UTF-8" standalone="no"?>
<svg
   version="1.0"
   width="512.000000pt"
   height="512.000000pt"
   viewBox="0 0 512.000000 512.000000"
   preserveAspectRatio="xMidYMid meet"
   id="svg5"
   sodipodi:docname="dog-symbolic.svg"
   inkscape:version="1.3 (0e150ed6c4, 2023-07-21)"
   xmlns:inkscape="http://www.inkscape.org/namespaces/inkscape"
   xmlns:sodipodi="http://sodipodi.sourceforge.net/DTD/sodipodi-0.dtd"
   xmlns="http://www.w3.org/2000/svg"
   xmlns:svg="http://www.w3.org/2000/svg">
  <defs
     id="defs5" />
  <sodipodi:namedview
     id="namedview5"
     pagecolor="#ffffff"
     bordercolor="#000000"
     borderopacity="0.25"
     inkscape:showpageshadow="2"
     inkscape:pageopacity="0.0"
     inkscape:pagecheckerboard="0"
     inkscape:deskcolor="#d1d1d1"
     inkscape:document-units="pt"
     inkscape:zoom="1.0429688"
     inkscape:cx="341.33333"
     inkscape:cy="341.33333"
     inkscape:window-width="1280"
     inkscape:window-height="951"
     inkscape:window-x="0"
     inkscape:window-y="0"
     inkscape:window-maximized="1"
     inkscape:current-layer="svg5" />
  <g
     transform="matrix(0.11695556,0,0,-0.11211506,-43.395082,543.00165)"
     fill="#000000"
     stroke="none"
     id="g5"
     style="fill:#ffffff">
    <path
       d="m 1930,4634 c -14,-2 -59,-9 -100,-15 -105,-15 -220,-53 -322,-106 l -86,-44 -53,15 c -30,9 -90,16 -141,16 -233,0 -452,-110 -537,-270 -42,-78 -48,-156 -32,-396 19,-277 42,-394 102,-522 61,-127 138,-172 239,-140 l 47,15 27,-96 c 33,-118 118,-298 189,-400 52,-74 53,-77 40,-108 -7,-18 -20,-74 -29,-125 -33,-187 3,-469 88,-698 l 42,-115 1,-265 v -265 l -52,-80 c -66,-99 -82,-160 -64,-242 11,-49 21,-66 66,-110 75,-73 148,-96 305,-95 226,1 346,69 413,233 20,51 22,75 27,401 5,339 6,348 27,369 24,25 66,21 79,-8 14,-31 17,-575 4,-650 -22,-123 -24,-220 -5,-268 38,-101 172,-170 350,-182 152,-10 267,29 362,123 79,78 88,133 51,307 -11,56 -21,129 -21,162 0,49 50,343 69,407 3,9 27,24 57,34 29,9 80,29 115,45 l 62,28 v -118 -118 l -45,-88 c -51,-100 -63,-156 -45,-212 20,-61 47,-90 114,-123 110,-55 270,-52 394,7 73,34 162,120 201,192 57,108 65,172 51,435 -13,228 -10,326 12,484 8,62 15,82 26,82 40,0 155,36 229,71 101,48 197,134 236,211 57,113 60,242 7,301 -26,29 -34,32 -88,32 -49,-1 -74,-8 -158,-49 -116,-56 -189,-69 -245,-42 -19,9 -56,46 -84,82 -149,197 -206,249 -350,319 -49,24 -132,54 -183,67 -83,20 -92,25 -88,43 3,11 11,57 18,101 l 12,82 49,6 c 108,15 170,74 210,200 20,65 22,91 22,301 0,336 -32,469 -142,586 -89,95 -199,133 -393,133 -126,0 -216,-16 -283,-50 -26,-14 -34,-13 -130,25 -154,60 -271,81 -472,86 -93,2 -181,2 -195,-1 z m 359,-170 c 123,-18 262,-61 347,-108 53,-30 62,-40 95,-106 20,-40 56,-132 79,-204 102,-321 173,-479 255,-573 l 46,-52 -11,-88 c -57,-460 -335,-825 -712,-934 -105,-30 -297,-37 -409,-15 -182,37 -338,125 -474,268 -159,165 -255,354 -305,596 l -17,87 32,65 c 70,140 108,273 160,560 37,202 69,307 107,347 32,34 208,118 291,138 154,37 347,44 516,19 z M 3706,2683 c 37,-65 120,-150 169,-176 67,-36 158,-30 282,17 111,42 133,41 133,-12 0,-97 -189,-205 -406,-233 l -91,-11 -11,-87 c -28,-207 -34,-381 -22,-612 10,-199 9,-236 -4,-288 -24,-93 -74,-158 -155,-201 l -24,-12 6,48 c 3,27 8,56 12,65 5,13 -4,19 -41,28 -25,7 -48,10 -50,8 -10,-10 -24,-115 -18,-140 6,-28 5,-28 -38,-25 l -43,3 v 55 c 0,30 3,67 7,81 7,25 5,27 -27,33 -19,4 -35,9 -35,12 0,2 12,23 28,46 l 27,41 3,260 c 2,142 -1,257 -5,255 -4,-2 -59,-29 -122,-61 -112,-58 -325,-137 -368,-137 -12,0 -24,-4 -28,-10 -3,-5 -26,-114 -51,-242 -52,-267 -56,-345 -25,-488 32,-149 27,-186 -29,-215 -16,-8 -31,-15 -34,-15 -3,0 -6,33 -8,73 l -3,72 -40,3 c -22,1 -45,-1 -50,-5 -7,-5 -9,-37 -5,-86 3,-43 3,-80 1,-83 -2,-2 -27,-4 -54,-4 h -49 l 3,87 4,88 -46,3 -46,3 -7,-38 c -3,-21 -6,-55 -6,-75 0,-45 -11,-47 -57,-12 -29,22 -33,30 -33,72 0,26 7,82 15,125 11,57 15,149 15,335 0,347 -13,413 -92,490 -104,99 -277,48 -328,-96 -9,-26 -15,-136 -19,-382 -6,-334 -7,-346 -29,-388 -20,-37 -71,-82 -94,-82 -5,0 -8,20 -8,45 0,29 -4,45 -12,45 -7,0 -30,3 -50,6 l -38,7 v -61 c 0,-65 -6,-72 -62,-72 h -31 l 6,64 6,64 -45,7 c -25,3 -48,4 -51,2 -2,-3 -7,-30 -10,-61 l -6,-55 -27,14 c -64,33 -61,101 10,204 71,106 70,100 70,407 v 277 l -36,89 c -45,112 -90,290 -105,411 -12,93 -7,275 8,302 6,11 23,2 77,-40 71,-54 213,-134 276,-154 30,-9 38,-19 52,-59 39,-110 126,-199 221,-227 176,-52 336,34 402,217 l 21,59 77,33 c 114,50 231,133 331,235 49,50 89,90 90,89 57,-150 187,-255 342,-280 117,-18 214,12 283,87 52,57 74,131 69,231 -2,41 -3,74 -2,74 1,0 15,-21 30,-47 z"
       id="path1"
       style="fill:#ffffff" />
    <path
       d="m 2549,3523 c -107,-91 -54,-293 77,-293 68,0 134,77 134,158 0,131 -122,209 -211,135 z"
       id="path2"
       style="fill:#ffffff" />
    <path
       d="m 1590,3464 c -42,-36 -60,-74 -60,-131 0,-87 62,-163 134,-163 97,0 165,131 122,233 -35,84 -132,114 -196,61 z"
       id="path3"
       style="fill:#ffffff" />
    <path
       d="m 2065,3126 c -177,-55 -162,-231 23,-271 35,-7 37,-11 21,-52 -18,-47 -49,-73 -88,-73 -47,0 -88,26 -141,89 l -42,50 -39,-22 c -21,-12 -39,-27 -39,-34 0,-6 26,-39 57,-73 70,-76 133,-110 203,-110 56,0 81,10 121,47 l 26,24 52,-36 c 43,-28 62,-35 102,-35 87,0 158,42 228,135 l 40,53 -41,27 -42,28 -19,-24 c -11,-13 -27,-34 -36,-46 -46,-58 -125,-87 -170,-63 -17,8 -51,76 -51,99 0,5 19,14 43,20 129,33 177,146 95,223 -56,53 -206,75 -303,44 z"
       id="path4"
       style="fill:#ffffff" />
    <path
       d="m 2838,2204 c -35,-18 -58,-62 -58,-110 0,-50 53,-104 103,-104 53,0 85,16 107,52 63,104 -46,220 -152,162 z"
       id="path5"
       style="fill:#ffffff" />
  </g>
</svg>
