<?xml version="1.0" encoding="UTF-8" standalone="no"?>
<svg
   height="16px"
   viewBox="0 0 16 16"
   width="16px"
   version="1.1"
   id="svg1"
   sodipodi:docname="hand-middle-finger-symbolic.svg"
   inkscape:version="1.3 (0e150ed6c4, 2023-07-21)"
   xmlns:inkscape="http://www.inkscape.org/namespaces/inkscape"
   xmlns:sodipodi="http://sodipodi.sourceforge.net/DTD/sodipodi-0.dtd"
   xmlns="http://www.w3.org/2000/svg"
   xmlns:svg="http://www.w3.org/2000/svg">
  <defs
     id="defs1" />
  <sodipodi:namedview
     id="namedview1"
     pagecolor="#ffffff"
     bordercolor="#000000"
     borderopacity="0.25"
     inkscape:showpageshadow="2"
     inkscape:pageopacity="0.0"
     inkscape:pagecheckerboard="0"
     inkscape:deskcolor="#d1d1d1"
     inkscape:zoom="48"
     inkscape:cx="8"
     inkscape:cy="8"
     inkscape:window-width="1920"
     inkscape:window-height="1007"
     inkscape:window-x="0"
     inkscape:window-y="0"
     inkscape:window-maximized="1"
     inkscape:current-layer="svg1" />
  <path
     d="m 7 2 v 6.5 s 0 0.5 -0.5 0.5 s -0.5 -0.5 -0.5 -0.5 v -0.5 c 0 -0.554688 -0.445312 -1 -1 -1 s -1 0.445312 -1 1 v 3.5 c 0 0.5 -0.5 0.5 -0.5 0.5 l -1.792969 -1.707031 c -0.1875 -0.195313 -0.445312 -0.304688 -0.71875 -0.304688 c -1.082031 0.085938 -1.144531 1.269531 -0.695312 1.71875 l 3 3 c 0.707031 0.792969 1.757812 1.289063 2.707031 1.292969 h 6 c 3 0 3 -3 3 -3 v -5.054688 c 0 -0.554687 -0.445312 -1 -1 -1 s -1 0.445313 -1 1 v 0.554688 s 0 0.5 -0.5 0.5 s -0.5 -0.5 -0.5 -0.5 v -0.5 c 0 -0.554688 -0.445312 -1 -1 -1 s -1 0.445312 -1 1 v 0.5 s 0 0.5 -0.5 0.5 s -0.5 -0.5 -0.5 -0.5 v -6.5 c 0 -0.554688 -0.453125 -0.992188 -1 -1 c -0.585938 -0.011719 -1 0.445312 -1 1 z m 0 0"
     id="path1"
     style="fill:#ffffff" />
</svg>
