<?xml version="1.0" encoding="UTF-8" standalone="no"?>
<svg
   height="128px"
   viewBox="0 0 128 128"
   width="128px"
   version="1.1"
   id="svg50"
   sodipodi:docname="dog-sleep.svg"
   inkscape:version="1.3.2 (091e20ef0f, 2023-11-25)"
   xmlns:inkscape="http://www.inkscape.org/namespaces/inkscape"
   xmlns:sodipodi="http://sodipodi.sourceforge.net/DTD/sodipodi-0.dtd"
   xmlns:xlink="http://www.w3.org/1999/xlink"
   xmlns="http://www.w3.org/2000/svg"
   xmlns:svg="http://www.w3.org/2000/svg">
  <defs
     id="defs50">
    <linearGradient
       id="linearGradient1"
       inkscape:collect="always">
      <stop
         style="stop-color:#241f32;stop-opacity:1;"
         offset="0"
         id="stop21" />
      <stop
         style="stop-color:#2e273f;stop-opacity:1;"
         offset="0.02"
         id="stop23" />
      <stop
         style="stop-color:#2d263d;stop-opacity:1;"
         offset="0.03"
         id="stop24" />
      <stop
         style="stop-color:#2c253c;stop-opacity:1;"
         offset="0.47999999"
         id="stop25" />
      <stop
         style="stop-color:#2d263d;stop-opacity:1;"
         offset="0.70499998"
         id="stop26" />
      <stop
         style="stop-color:#241f32;stop-opacity:1;"
         offset="0.93000001"
         id="stop22" />
    </linearGradient>
    <rect
       x="54.257218"
       y="46.110236"
       width="27.716535"
       height="15.454068"
       id="rect3" />
    <linearGradient
       inkscape:collect="always"
       xlink:href="#linearGradient1"
       id="linearGradient22"
       x1="63.245"
       y1="58.673142"
       x2="100.98524"
       y2="58.673142"
       gradientUnits="userSpaceOnUse"
       gradientTransform="translate(0,1.07)" />
  </defs>
  <sodipodi:namedview
     id="namedview50"
     pagecolor="#ffffff"
     bordercolor="#000000"
     borderopacity="0.25"
     inkscape:showpageshadow="2"
     inkscape:pageopacity="0.0"
     inkscape:pagecheckerboard="0"
     inkscape:deskcolor="#d1d1d1"
     inkscape:zoom="23.8125"
     inkscape:cx="67.422572"
     inkscape:cy="67.065616"
     inkscape:window-width="1920"
     inkscape:window-height="1008"
     inkscape:window-x="0"
     inkscape:window-y="0"
     inkscape:window-maximized="1"
     inkscape:current-layer="svg50" />
  <linearGradient
     id="a"
     gradientTransform="matrix(0.49841481,-1.3537396,1.3516958,0.49766232,-279.55362,49.853848)"
     gradientUnits="userSpaceOnUse"
     x1="36.445473"
     x2="101.97435"
     y1="234.826645"
     y2="234.826645">
    <stop
       offset="0"
       stop-color="#993e00"
       id="stop1" />
    <stop
       offset="0.11"
       stop-color="#cc5200"
       id="stop2" />
    <stop
       offset="0.5"
       stop-color="#e55c00"
       id="stop3" />
    <stop
       offset="1"
       stop-color="#ff6600"
       id="stop4" />
  </linearGradient>
  <linearGradient
     id="b"
     gradientUnits="userSpaceOnUse"
     x1="9.34065293709"
     x2="34.445778312"
     y1="29.98962205754"
     y2="29.98962205754"
     gradientTransform="rotate(-69.787491,75.982247,69.001866)">
    <stop
       offset="0"
       stop-color="#b38156"
       id="stop5" />
    <stop
       offset="1"
       stop-color="#865f3c"
       id="stop6" />
  </linearGradient>
  <linearGradient
     id="c"
     gradientUnits="userSpaceOnUse"
     x1="67.80713857174"
     x2="94.97216822096"
     y1="25.67319736253"
     y2="25.67319736253"
     gradientTransform="rotate(-69.787491,75.982247,69.001866)">
    <stop
       offset="0"
       stop-color="#b48755"
       id="stop7" />
    <stop
       offset="1"
       stop-color="#865e3c"
       id="stop8" />
  </linearGradient>
  <linearGradient
     id="d"
     gradientTransform="matrix(0.47830723,-1.2991257,1.2990571,0.478282,-270.09748,49.572917)"
     gradientUnits="userSpaceOnUse"
     x1="60.660801"
     x2="73.676498"
     y1="218.378662"
     y2="218.378662">
    <stop
       offset="0"
       stop-color="#ff7e1f"
       id="stop9" />
    <stop
       offset="1"
       stop-color="#e56000"
       id="stop10" />
  </linearGradient>
  <linearGradient
     id="e"
     gradientUnits="userSpaceOnUse"
     x1="35.52971995056"
     x2="43.72504632714"
     y1="41.57315460963"
     y2="41.57315460963">
    <stop
       offset="0"
       stop-color="#060401"
       id="stop11" />
    <stop
       offset="1"
       stop-opacity="0.321569"
       id="stop12" />
  </linearGradient>
  <linearGradient
     id="f"
     gradientUnits="userSpaceOnUse"
     x1="43.0993238593"
     x2="67.45274885635"
     y1="55.93779100093"
     y2="55.93779100093"
     gradientTransform="rotate(-69.787491,75.982247,69.001866)">
    <stop
       offset="0"
       stop-color="#040301"
       id="stop13" />
    <stop
       offset="1"
       stop-opacity="0.317647"
       id="stop14" />
  </linearGradient>
  <linearGradient
     id="g"
     gradientUnits="userSpaceOnUse">
    <stop
       offset="0"
       stop-color="#ff7d1f"
       id="stop15" />
    <stop
       offset="1"
       stop-color="#e66100"
       id="stop16" />
  </linearGradient>
  <linearGradient
     id="h"
     x1="75.12340760378"
     x2="97.82115283856"
     xlink:href="#g"
     y1="64.13509061946"
     y2="64.13509061946"
     gradientTransform="rotate(-69.787491,75.982247,69.001866)" />
  <linearGradient
     id="i"
     gradientUnits="userSpaceOnUse">
    <stop
       offset="0"
       stop-color="#ff7d1f"
       id="stop17" />
    <stop
       offset="1"
       stop-color="#e56100"
       id="stop18" />
  </linearGradient>
  <linearGradient
     id="j"
     x1="70.86932101872"
     x2="78.18281955994"
     xlink:href="#i"
     y1="77.46299928992"
     y2="77.46299928992"
     gradientTransform="rotate(-69.787491,75.982247,69.001866)" />
  <linearGradient
     id="k"
     x1="42.79338575805"
     x2="64.28675345734"
     xlink:href="#i"
     y1="79.94376075526"
     y2="79.94376075526"
     gradientTransform="rotate(-69.787491,75.982247,69.001866)" />
  <linearGradient
     id="l"
     x1="34.73819863088"
     x2="37.63866115453"
     xlink:href="#i"
     y1="115.82322854611"
     y2="115.82322854611"
     gradientTransform="rotate(-69.787491,75.982247,69.001866)" />
  <linearGradient
     id="m"
     x1="40.52776837907"
     x2="43.36427237907"
     xlink:href="#i"
     y1="116.9001882057"
     y2="116.9001882057"
     gradientTransform="rotate(-69.787491,75.982247,69.001866)" />
  <linearGradient
     id="n"
     x1="62.1812010663"
     x2="64.90527533085"
     xlink:href="#g"
     y1="119.4573110881"
     y2="119.4573110881"
     gradientTransform="rotate(-69.787491,75.982247,69.001866)" />
  <linearGradient
     id="o"
     gradientTransform="matrix(0.35644034,-0.96812416,0.96793643,0.35637123,-13.752358,117.98444)"
     gradientUnits="userSpaceOnUse"
     x1="67.617081"
     x2="70.06308"
     y1="113.790466"
     y2="113.790466">
    <stop
       offset="0"
       stop-color="#ff7e1f"
       id="stop19" />
    <stop
       offset="1"
       stop-color="#e56100"
       id="stop20" />
  </linearGradient>
  <linearGradient
     id="p"
     gradientTransform="matrix(0.35637157,-0.96793739,0.96793643,0.35637123,-12.979856,117.04549)"
     x1="84.059235"
     x2="86.902229"
     xlink:href="#g"
     y1="102.490669"
     y2="102.490669" />
  <linearGradient
     id="q"
     gradientTransform="matrix(0.35637157,-0.96793739,0.96793643,0.35637123,-12.98033,117.04531)"
     x1="89.172729"
     x2="92.042732"
     xlink:href="#i"
     y1="103.55468"
     y2="103.55468" />
  <path
     d="m 57.748212,108.5951 c 0,0 5.830693,3.58697 13.129165,4.83801 7.303497,1.24867 14.17581,2.49268 14.17581,2.49268 0,0 13.368622,5.04689 14.677566,5.95756 1.307587,0.91434 2.712027,4.56168 5.343997,5.53071 2.63563,0.97038 6.24361,0.39644 8.76561,-4.01146 2.52567,-4.40654 2.30403,-8.81309 0.91088,-11.11176 -2.01553,-3.3104 -4.19362,-3.61281 -6.29406,-4.38614 -2.10044,-0.77334 -14.147677,-5.35037 -15.808941,-6.53644 -1.653931,-1.18338 -2.423914,-2.33685 -1.78006,-3.689909 0.646171,-1.348043 3.436356,-2.052401 7.69412,-0.626321 4.248131,1.418368 11.335531,4.37328 12.733931,5.02966 1.4007,0.6614 6.12696,3.35889 8.47564,3.06226 2.34233,-0.29066 5.95499,-4.20125 7.0575,-7.828895 1.45375,-4.751253 -0.54435,-8.662966 -2.81329,-9.78139 -2.26757,-1.122089 -8.22356,-1.587467 -9.80349,-2.169155 -1.57991,-0.581688 -11.69881,-6.326085 -12.17605,-7.076232 -0.4676,-0.742434 0.24394,-2.245402 -0.0922,-6.227886 -0.30752,-3.630612 -1.20235,-5.85821 -1.20235,-5.85821 0,0 9.89505,3.638961 10.89022,4.146887 0.99941,0.530304 2.18286,3.692519 4.65092,5.004973 1.87094,1.001024 5.8086,0.356993 7.66693,-4.249468 2.67017,-5.23998 0.22205,-10.69936 -2.63169,-13.044602 -3.17986,-2.827463 -7.16115,-4.122615 -9.36938,-4.648412 -2.89274,-0.690403 -9.15336,-3.086997 -11.05783,-3.963003 -1.931471,-0.881789 -5.046031,-2.349015 -6.178181,-2.903213 -1.630851,-0.612926 -1.550355,-0.379323 -1.549972,-0.39167 0,0 1.359001,-4.007735 0.53802,-7.261279 -0.818662,-3.248528 -2.898359,-7.119516 -6.265306,-9.732802 -3.289765,-2.55157 -5.783754,-3.307455 -6.295929,-2.334663 -0.502144,0.968161 5.696154,8.599158 4.472184,12.556707 -1.937452,6.279831 -8.548585,3.150617 -14.417366,6.326314 -6.616633,3.578859 -10.560172,11.859082 -10.560172,11.859082 0,0 -4.995532,-3.458485 -9.0687,-4.978942 -17.792328,-6.621477 -26.604613,-0.708246 -26.604613,-0.708246 0,0 -11.475398,7.222159 -15.162989,18.843439 -3.6875904,11.62128 2.633342,23.464192 2.633342,23.464192 l 26.261679,16.258314 c 0,0 -9.601129,4.05348 11.475884,-0.50774 5.124123,-1.40185 6.629351,-1.83837 6.629351,-1.83837 z m 0,0"
     fill="url(#a)"
     id="path20"
     style="fill:url(#a)" />
  <path
     d="m 55.980819,105.49262 c 0,0 6.435348,3.85539 13.748484,5.11182 7.313523,1.24405 13.791676,2.3263 13.791676,2.3263 0,0 14.63565,5.75481 16.686161,6.66377 1.49911,0.67681 2.14404,4.38587 4.77969,5.35624 2.63929,0.97173 4.39263,0.66404 6.26017,-2.4072 2.64221,-4.33866 2.07665,-8.45557 0.68485,-10.75791 -2.9145,-3.25425 -4.59133,-3.22226 -6.69543,-3.99694 -2.10044,-0.77333 -14.136866,-5.3006 -15.805459,-6.48937 -1.655281,-1.17972 -2.069548,-3.321955 -1.422026,-4.673665 0.64617,-1.348041 3.663674,-2.64721 7.925109,-1.219779 4.255456,1.421067 11.899866,3.790162 13.305596,4.449248 1.40072,0.661406 6.22792,3.649976 8.58027,3.354686 2.34233,-0.29064 5.09537,-3.302271 6.19786,-6.929905 1.45376,-4.751254 0.62317,-6.101871 -1.64944,-7.221644 -2.27491,-1.124788 -7.88149,-2.256576 -11.12381,-3.987299 -0.0973,-0.05246 -11.885941,-6.270098 -12.359521,-7.018896 -0.47125,-0.743781 0.54377,-3.059148 0.20008,-7.044369 -0.30751,-3.630611 -0.71626,-6.986296 -0.71626,-6.986296 0,0 6.449741,1.679486 12.714341,4.585378 2.4272,3.266316 5.09458,4.727079 5.06487,4.72863 2.22983,1.382919 4.61338,-0.953036 5.84345,-3.513872 2.08679,-4.322541 0.48454,-8.325781 -3.90862,-11.362681 -2.74106,-2.312085 -7.30276,-3.263141 -9.50366,-3.786241 -2.19357,-0.5204 -9.562861,-3.670671 -11.441881,-4.6497 -1.87902,-0.979031 -3.003473,-1.62197 -3.981482,-2.165203 -1.615088,-0.881856 -3.132891,-2.389746 -3.132891,-2.389746 0,0 1.614147,-4.384171 0.793168,-7.637713 -0.818664,-3.248528 -2.905692,-7.122216 -6.276303,-9.736851 -3.29575,-2.557934 -4.546066,-2.689426 -5.04956,-1.7176 -0.50716,0.970476 4.451133,7.97843 3.225812,11.939644 -1.93745,6.279831 -8.555914,3.147918 -14.428364,6.322265 -6.627627,3.57481 -10.234208,11.550346 -10.234208,11.550346 0,0 -5.022141,-3.397517 -9.101293,-4.924339 C 31.129196,44.63512 21.995566,50.78802 21.995566,50.78802 c 0,0 -11.493727,7.215412 -15.173987,18.839391 -3.6875905,11.621279 2.644343,23.468234 2.644343,23.468234 l 26.448747,16.880805 c 0,0 -0.213527,0.15033 4.759041,-0.90773 5.187075,-1.12061 15.39142,-3.54506 15.39142,-3.54506 z m 0,0"
     fill="#ffa348"
     id="path21" />
  <path
     d="m 2.459176,96.501735 c -3.23953925,9.409405 3.1916817,17.380075 8.189022,19.386485 2.93219,1.17114 24.06114,10.22823 28.732084,-1.10176 1.877444,-4.54532 -2.410521,-10.01606 -8.052449,-14.07052 C 24.217009,95.608669 16.240675,92.784366 14.222359,91.754045 10.996064,90.104152 8.766385,88.51732 8.766385,88.51732 c 0,0 -3.5525501,-0.01756 -6.307209,7.984415 z m 0,0"
     fill="url(#b)"
     id="path22"
     style="fill:url(#b)" />
  <path
     d="m 1.1482071,96.014908 c -3.2408876,9.413062 3.186667,17.382382 8.1853569,19.385132 2.934506,1.17616 24.063455,10.23324 28.734401,-1.09675 1.877443,-4.54531 -2.406855,-10.01472 -8.048787,-14.06916 C 22.904689,95.125503 14.928357,92.301195 12.910042,91.270879 9.680079,89.619638 7.454066,88.034156 7.454066,88.034156 c 0,0 -3.5525492,-0.01756 -6.3058589,7.980752 z m 0,0"
     fill="#865e3c"
     id="path23" />
  <path
     d="m 17.607478,45.31787 c 4.13203,-10.013228 10.073852,-11.759241 13.144496,-11.744275 3.363685,0.01046 14.288765,2.954705 20.764505,7.141322 5.287403,3.411929 7.494629,6.439077 5.613703,10.937317 -1.71857,4.125107 -8.75599,3.940074 -18.42744,3.967429 -9.351018,0.01629 -18.23768,-0.832937 -19.435493,-0.824383 -1.573231,-6.04e-4 -2.561546,0.863464 -2.561546,0.863464 0,0 -2.18578,-2.881885 0.901775,-10.340874 z m 0,0"
     fill="url(#c)"
     id="path24"
     style="fill:url(#c)" />
  <path
     d="m 16.258502,44.821209 c 4.132032,-10.013228 10.073853,-11.759241 13.151829,-11.741577 3.360019,0.0092 14.285097,2.953358 20.760838,7.139974 5.287404,3.411929 7.494629,6.439076 5.61602,10.942332 -1.720887,4.120091 -8.758307,3.935058 -18.429756,3.962415 -9.351018,0.01629 -17.583786,-0.359084 -18.781599,-0.350531 -1.571881,-0.0043 -2.560196,0.859799 -2.560196,0.859799 0,0 -2.84469,-3.353423 0.242864,-10.812412 z m 0,0"
     fill="#865e3c"
     id="path25" />
  <path
     d="m 34.769821,64.832055 c -1.521384,5.138451 3.375411,9.667833 9.574611,10.738917 6.67977,1.156444 11.097893,-1.708349 12.276253,-6.943954 C 57.906779,62.90659 52.063838,58.878029 46.932037,57.779514 42.269045,56.787001 36.91348,57.56252 34.769821,64.832055 Z m 0,0"
     fill="url(#d)"
     id="path26"
     style="fill:url(#d)" />
  <path
     d="m 33.368177,64.320166 c -1.523702,5.133436 3.376762,9.664167 9.57596,10.735251 6.676105,1.155094 11.097894,-1.708349 12.272586,-6.945304 1.286097,-5.720428 -4.556846,-9.74899 -9.684981,-10.846154 -4.666658,-0.993862 -10.018557,-0.216994 -12.163565,7.056207 z m 0,0"
     fill="#e66100"
     id="path27" />
  <path
     d="m 58.482009,83.277811 c 0,0 1.503069,-5.981877 -2.920972,-7.306834 -4.41536,-1.325925 -6.133615,2.470453 -7.189169,5.540938 -1.048221,3.073185 -1.007024,8.037675 2.794381,8.916938 3.805072,0.880613 6.110347,-3.910952 6.110347,-3.910952 0,0 2.684256,0.996603 2.25058,2.785027 -0.47628,1.926754 -4.406606,3.489256 -5.420283,3.936075 -1.018692,0.449136 -1.163113,1.678041 -0.693036,2.300673 0.467761,0.617616 1.941884,0.864808 3.523259,0.164956 1.585038,-0.698506 5.501668,-2.257725 6.202518,-5.009243 0.704515,-2.750169 -0.71046,-3.350218 -0.394116,-4.42425 0.325407,-1.087345 1.94836,-0.419046 2.850439,-3.083989 0.637955,-1.879718 -1.375816,-6.879472 -1.727309,-7.778964 -0.813193,-2.031036 -2.039752,-2.928023 -3.173448,-2.596156 -1.125015,0.3309 -0.513934,2.662156 -0.120882,3.934932 0.38437,1.273741 1.567432,3.532531 1.282082,5.200737 -0.475325,2.772112 -3.374391,1.330112 -3.374391,1.330112 z m 0,0"
     fill="url(#f)"
     id="path31"
     style="fill:url(#f)" />
  <path
     d="m 57.855175,83.047026 c 0,0 1.539727,-5.96838 -2.620384,-7.196164 -4.15143,-1.228753 -5.851358,2.574373 -6.90691,5.644857 -1.059219,3.069137 -1.118346,8.000851 2.460802,8.794123 3.585129,0.799635 5.86108,-4.002727 5.86108,-4.002727 0,0 2.521615,0.940887 2.074626,2.720247 -0.490942,1.921354 -4.237983,3.551338 -5.209022,4.018019 -0.969688,0.463014 -1.132439,1.685171 -0.699018,2.294306 0.431104,0.60412 1.820916,0.820272 3.332643,0.09477 1.511726,-0.725498 5.248736,-2.350848 5.967914,-5.095618 0.719178,-2.74477 -0.607821,-3.31243 -0.284145,-4.383761 0.325407,-1.087345 1.849386,-0.455487 2.755131,-3.11908 0.637954,-1.879717 -1.163206,-6.801194 -1.478043,-7.687189 -0.732547,-2.001345 -1.874797,-2.86729 -2.953506,-2.51518 -1.073695,0.349796 -0.53959,2.652711 -0.194197,3.90794 0.340383,1.257545 1.413474,3.475848 1.113462,5.138655 -0.504652,2.761315 -3.220433,1.386795 -3.220433,1.386795 z m 0,0"
     fill="#060401"
     id="path32" />
  <path
     d="m 61.753032,58.836391 c 0,0 2.289616,2.20415 4.108238,4.014275 2.193924,2.181406 3.855294,4.757827 3.855294,4.757827 0,0 14.599015,3.152186 17.691745,-8.9337 1.101968,-4.327149 -1.118093,-8.732679 -4.602503,-10.348563 -5.871795,-2.740455 -9.523248,-1.562303 -13.560839,0.868152 -6.523954,3.937663 -7.491935,9.642009 -7.491935,9.642009 z m 0,0"
     fill="url(#h)"
     id="path33"
     style="fill:url(#h)" />
  <path
     d="m 60.338075,58.315438 c 0,0 2.289615,2.204149 4.108237,4.014274 2.193926,2.181406 3.855293,4.757827 3.855293,4.757827 0,0 14.599015,3.152186 17.691747,-8.9337 1.101967,-4.327149 -1.118094,-8.732678 -4.602505,-10.348563 -5.871794,-2.740455 -9.523245,-1.562301 -13.559488,0.864486 -6.525305,3.941329 -7.493284,9.645676 -7.493284,9.645676 z m 0,0"
     fill="#e66100"
     id="path34" />
  <path
     d="m 80.003217,74.717543 c 1.203625,2.790847 5.308929,3.036894 6.713958,0.453062 1.402712,-2.588848 -0.41313,-4.926598 -2.277568,-5.379934 -2.880966,-0.711047 -5.804656,1.746562 -4.43639,4.926872 z m 0,0"
     fill="url(#j)"
     id="path35"
     style="fill:url(#j)" />
  <path
     d="m 79.075796,74.37609 c 1.19996,2.789496 5.305264,3.035544 6.710293,0.451711 1.399046,-2.590198 -0.413131,-4.926597 -2.278917,-5.376268 -2.879618,-0.714713 -5.800993,1.74791 -4.431376,4.924557 z m 0,0"
     fill="#e66100"
     id="path36" />
  <path
     d="m 67.000468,100.57109 c 0,0 4.508863,3.72885 12.415593,2.26504 3.364898,-0.62597 6.259709,-3.706106 7.107205,-6.324542 0.903794,-2.760051 0.826018,-5.590111 -1.125227,-8.702004 -3.10856,-4.965757 -10.700557,-6.674514 -10.700557,-6.674514 0,0 0.31038,6.166685 -1.658636,10.994637 -2.085084,5.143202 -6.038378,8.441383 -6.038378,8.441383 z m 0,0"
     fill="url(#k)"
     id="path37"
     style="fill:url(#k)" />
  <path
     d="m 65.490202,100.01503 c 0,0 4.512528,3.73022 12.422925,2.26776 3.357566,-0.62867 6.256044,-3.70746 7.107204,-6.324548 0.896464,-2.76275 0.822353,-5.59146 -1.128891,-8.703354 -3.112227,-4.967106 -10.704223,-6.675864 -10.704223,-6.675864 0,0 0.31038,6.166685 -1.65497,10.995988 -2.088751,5.141853 -6.042045,8.440018 -6.042045,8.440018 z m 0,0"
     fill="#e66100"
     id="path38" />
  <path
     d="m 103.09128,120.68136 c -0.90646,1.17312 1.03127,2.49012 2.35153,3.07611 1.32256,0.59101 3.0848,1.23149 3.95694,0.20808 0.87312,-1.01473 -1.82189,-1.74472 -2.64053,-2.16685 -1.57726,-0.8263 -2.71386,-2.35202 -3.66794,-1.11734 z m 0,0"
     fill="url(#l)"
     id="path39"
     style="fill:url(#l)" />
  <path
     d="m 102.7247,120.54639 c -0.91012,1.17178 1.02762,2.48878 2.34788,3.07477 1.32255,0.591 3.0848,1.23149 3.96061,0.20942 0.86944,-1.01608 -1.82189,-1.74473 -2.6442,-2.16818 -1.5736,-0.82496 -2.71387,-2.35203 -3.66429,-1.11601 z m 0,0"
     fill="#e66100"
     id="path40" />
  <path
     d="m 105.83252,115.77974 c -0.32952,0.78196 0.19352,1.92777 2.57046,2.91112 1.98875,0.82795 3.68402,1.35637 4.18054,0.2904 0.66853,-1.43139 -1.44879,-1.74055 -3.04665,-2.42044 z m 0,0"
     fill="url(#m)"
     id="path41"
     style="fill:url(#m)" />
  <path
     d="m 105.43296,115.63263 c -0.32586,0.7833 0.19718,1.92912 2.57413,2.91247 1.98875,0.82796 3.68035,1.35503 4.18055,0.2904 0.66485,-1.43274 -1.44879,-1.74056 -3.05034,-2.42178 -0.90891,-0.38043 -3.00769,-2.40193 -3.70434,-0.78109 z m 0,0"
     fill="#e66100"
     id="path42" />
  <path
     d="m 115.58398,96.76711 c -0.46832,1.271996 1.01746,1.860648 2.63403,2.455831 1.62389,0.597882 3.51625,1.665069 4.22087,0.305248 0.85099,-1.655595 -1.68752,-2.211417 -3.04016,-2.709427 -1.18306,-0.427248 -3.30458,-1.437285 -3.81474,-0.05165 z m 0,0"
     fill="url(#n)"
     id="path43"
     style="fill:url(#n)" />
  <path
     d="m 115.19909,96.625401 c -0.46832,1.271994 1.01378,1.859295 2.63401,2.45583 1.62392,0.597883 3.51626,1.665069 4.22088,0.305247 0.85098,-1.655594 -1.68386,-2.210067 -3.04016,-2.709428 -1.18305,-0.427246 -3.30323,-1.440949 -3.81473,-0.05165 z m 0,0"
     fill="#e66100"
     id="path44" />
  <path
     d="m 117.39497,90.898602 c -0.15892,1.098691 1.32277,1.540149 3.09446,2.154977 1.7734,0.598814 3.54245,1.537355 3.92487,0.04641 0.31885,-1.272923 -1.78199,-1.954817 -3.37811,-2.492518 -1.37713,-0.465402 -3.41182,-1.406007 -3.64122,0.291123 z m 0,0"
     fill="url(#o)"
     id="path45"
     style="fill:url(#o)" />
  <path
     d="m 117.0174,90.759591 c -0.15891,1.098691 1.32277,1.540149 3.09445,2.154976 1.77707,0.600164 3.54246,1.537355 3.92489,0.04641 0.31885,-1.272923 -1.77467,-1.95212 -3.37445,-2.491168 -1.37848,-0.461737 -3.4068,-1.408324 -3.64489,0.289773 z m 0,0"
     fill="#e66100"
     id="path46" />
  <path
     d="m 113.8612,68.851193 c -0.49715,0.807655 -0.10047,2.08178 1.85556,3.089151 1.68395,0.853098 3.2569,1.340641 4.13804,-0.01247 0.45534,-0.694017 -1.51453,-1.573289 -2.94898,-2.143046 -1.23748,-0.50556 -2.41477,-1.954683 -3.04462,-0.933638 z m 0,0"
     fill="url(#p)"
     id="path47"
     style="fill:url(#p)" />
  <path
     d="m 113.47631,68.709485 c -0.49717,0.807653 -0.0968,2.083127 1.85691,3.085482 1.6826,0.856763 3.25555,1.34431 4.13302,-0.01015 0.45899,-0.692667 -1.51087,-1.57194 -2.94532,-2.141698 -1.23748,-0.505558 -2.41476,-1.954682 -3.04461,-0.933634 z m 0,0"
     fill="#e66100"
     id="path48" />
  <path
     d="m 116.68552,64.458855 c -0.44836,0.788158 -0.2192,1.804961 1.88366,2.820604 1.22341,0.600282 3.34247,1.888312 3.98688,0.398091 0.49092,-1.163776 -1.55394,-1.816743 -2.55953,-2.307688 -1.59346,-0.782317 -2.55661,-2.20255 -3.31101,-0.911007 z m 0,0"
     fill="url(#q)"
     id="path49"
     style="fill:url(#q)" />
  <path
     d="m 116.30428,64.318494 c -0.44836,0.788158 -0.21919,1.804962 1.88,2.819255 1.2234,0.600282 3.34248,1.888311 3.98689,0.398091 0.49091,-1.163776 -1.55395,-1.816741 -2.56089,-2.304025 -1.5921,-0.78598 -2.55526,-2.206214 -3.306,-0.913321 z m 0,0"
     fill="#e66100"
     id="path50" />
  <rect
     style="fill:#000000;stroke-width:0.58325"
     id="rect48-35-29"
     width="5.7033715"
     height="14.559105"
     x="-55.668652"
     y="-83.360062"
     ry="3.7189021"
     transform="matrix(-0.9367748,-0.34993283,0.16949132,-0.98553168,0,0)" />
  <rect
     style="fill:#000000;stroke-width:0.58325"
     id="rect48-35-29-9"
     width="5.7033715"
     height="14.559105"
     x="-59.240623"
     y="-54.703697"
     ry="3.7189021"
     transform="matrix(-0.9367748,-0.34993283,0.16949132,-0.98553168,0,0)" />
  <path
     id="rect1-3"
     style="fill:url(#linearGradient22);stroke-width:0.515734"
     d="M 69.248906,43.6 C 65.922563,43.6 63.245,46.277564 63.245,49.603907 v 13.357422 c 0,3.326343 2.677563,6.003906 6.003906,6.003906 h 1.6875 c -1.716785,1.703466 -5.730452,5.89919 -4.527344,6.814453 1.264959,0.962314 8.451156,-4.855612 10.804688,-6.814453 h 17.767578 c 3.326343,0 6.003912,-2.677563 6.003912,-6.003906 V 49.603907 C 100.98524,46.277564 98.307671,43.6 94.981328,43.6 Z" />
  <path
     id="rect1"
     style="fill:#241f31;stroke-width:0.515734"
     d="m 69.248908,42.33 c -3.326343,0 -6.003906,2.677564 -6.003906,6.003907 v 13.357422 c 0,3.326343 2.677563,6.003906 6.003906,6.003906 h 1.6875 c -1.716785,1.703466 -5.730452,5.89919 -4.527344,6.814453 1.264959,0.962314 8.451156,-4.855612 10.804688,-6.814453 H 94.98133 c 3.326343,0 6.00391,-2.677563 6.00391,-6.003906 V 48.333907 c 0,-3.326343 -2.677567,-6.003907 -6.00391,-6.003907 z" />
  <text
     xml:space="preserve"
     id="text3"
     style="white-space:pre;shape-inside:url(#rect3);display:inline;fill:#241f31;stroke-width:0.707"
     transform="translate(15.693767,2.5387999)"><tspan
       x="54.257812"
       y="56.885526"
       id="tspan3"><tspan
         style="font-weight:bold;font-family:Cantarell;-inkscape-font-specification:'Cantarell Bold';fill:#ffffff"
         id="tspan1">Zzzz</tspan></tspan></text>
</svg>
