<?xml version="1.0" encoding="UTF-8"?>
<svg height="128px" viewBox="0 0 128 128" width="128px" xmlns="http://www.w3.org/2000/svg" xmlns:xlink="http://www.w3.org/1999/xlink">
    <linearGradient id="a" gradientTransform="matrix(1.442577 0 0 1.440399 -28.887652 -271.254955)" gradientUnits="userSpaceOnUse" x1="36.445473" x2="101.97435" y1="234.826645" y2="234.826645">
        <stop offset="0" stop-color="#993e00"/>
        <stop offset="0.11" stop-color="#cc5200"/>
        <stop offset="0.5" stop-color="#e55c00"/>
        <stop offset="1" stop-color="#ff6600"/>
    </linearGradient>
    <linearGradient id="b" gradientUnits="userSpaceOnUse" x1="9.34065293709" x2="34.445778312" y1="29.98962205754" y2="29.98962205754">
        <stop offset="0" stop-color="#b38156"/>
        <stop offset="1" stop-color="#865f3c"/>
    </linearGradient>
    <linearGradient id="c" gradientUnits="userSpaceOnUse" x1="67.80713857174" x2="94.97216822096" y1="25.67319736253" y2="25.67319736253">
        <stop offset="0" stop-color="#b48755"/>
        <stop offset="1" stop-color="#865e3c"/>
    </linearGradient>
    <linearGradient id="d" gradientTransform="matrix(1.384379 0 0 1.384306 -25.356896 -262.478206)" gradientUnits="userSpaceOnUse" x1="60.660801" x2="73.676498" y1="218.378662" y2="218.378662">
        <stop offset="0" stop-color="#ff7e1f"/>
        <stop offset="1" stop-color="#e56000"/>
    </linearGradient>
    <linearGradient id="e" gradientUnits="userSpaceOnUse" x1="35.52971995056" x2="43.72504632714" y1="41.57315460963" y2="41.57315460963">
        <stop offset="0" stop-color="#060401"/>
        <stop offset="1" stop-opacity="0.321569"/>
    </linearGradient>
    <linearGradient id="f" gradientUnits="userSpaceOnUse" x1="43.0993238593" x2="67.45274885635" y1="55.93779100093" y2="55.93779100093">
        <stop offset="0" stop-color="#040301"/>
        <stop offset="1" stop-opacity="0.317647"/>
    </linearGradient>
    <linearGradient id="g" gradientUnits="userSpaceOnUse">
        <stop offset="0" stop-color="#ff7d1f"/>
        <stop offset="1" stop-color="#e66100"/>
    </linearGradient>
    <linearGradient id="h" x1="75.12340760378" x2="97.82115283856" xlink:href="#g" y1="64.13509061946" y2="64.13509061946"/>
    <linearGradient id="i" gradientUnits="userSpaceOnUse">
        <stop offset="0" stop-color="#ff7d1f"/>
        <stop offset="1" stop-color="#e56100"/>
    </linearGradient>
    <linearGradient id="j" x1="70.86932101872" x2="78.18281955994" xlink:href="#i" y1="77.46299928992" y2="77.46299928992"/>
    <linearGradient id="k" x1="42.79338575805" x2="64.28675345734" xlink:href="#i" y1="79.94376075526" y2="79.94376075526"/>
    <linearGradient id="l" x1="34.73819863088" x2="37.63866115453" xlink:href="#i" y1="115.82322854611" y2="115.82322854611"/>
    <linearGradient id="m" x1="40.52776837907" x2="43.36427237907" xlink:href="#i" y1="116.9001882057" y2="116.9001882057"/>
    <linearGradient id="n" x1="62.1812010663" x2="64.90527533085" xlink:href="#g" y1="119.4573110881" y2="119.4573110881"/>
    <linearGradient id="o" gradientTransform="matrix(1.031656 0 0 1.031456 -0.987442 1.716962)" gradientUnits="userSpaceOnUse" x1="67.617081" x2="70.06308" y1="113.790466" y2="113.790466">
        <stop offset="0" stop-color="#ff7e1f"/>
        <stop offset="1" stop-color="#e56100"/>
    </linearGradient>
    <linearGradient id="p" gradientTransform="matrix(1.031457 0 0 1.031456 0.160589 2.117483)" x1="84.059235" x2="86.902229" xlink:href="#g" y1="102.490669" y2="102.490669"/>
    <linearGradient id="q" gradientTransform="matrix(1.031457 0 0 1.031456 0.160589 2.116977)" x1="89.172729" x2="92.042732" xlink:href="#i" y1="103.55468" y2="103.55468"/>
    <path d="m 32.527344 65.570312 s -1.351563 6.710938 -0.003906 13.992188 c 1.351562 7.285156 2.558593 14.164062 2.558593 14.164062 s -0.117187 14.289063 -0.519531 15.832032 c -0.40625 1.542968 -3.34375 4.121094 -3.34375 6.925781 c 0 2.808594 1.785156 5.996094 6.792969 6.839844 c 5.007812 0.847656 9.066406 -0.882813 10.742187 -2.984375 c 2.410156 -3.035156 1.941406 -5.183594 1.941406 -7.421875 s 0.132813 -15.125 0.671876 -17.09375 c 0.539062 -1.960938 1.355468 -3.082031 2.847656 -2.945313 c 1.488281 0.140625 3.113281 2.515625 3.246094 7.003906 c 0.136718 4.476563 -0.1875 12.148438 -0.320313 13.6875 c -0.136719 1.542969 -1.035156 6.910157 0.054687 9.011719 c 1.082032 2.097657 6 4.136719 9.785157 3.917969 c 4.960937 -0.277344 7.941406 -3.503906 8.207031 -6.019531 c 0.269531 -2.515625 -1.351562 -8.265625 -1.351562 -9.949219 s 1.894531 -13.164062 2.433593 -13.871094 c 0.535157 -0.695312 2.191407 -0.546875 5.8125 -2.238281 c 3.300781 -1.542969 5.082031 -3.152344 5.082031 -3.152344 s 0.003907 10.542969 -0.128906 11.652344 c -0.152344 1.121094 -2.710937 3.324219 -3.089844 6.09375 c -0.292968 2.101563 1.671876 5.574219 6.636719 5.726563 c 5.839844 0.695312 10.117188 -3.488282 11.332031 -6.976563 c 1.554688 -3.960937 1.394532 -8.144531 1.125 -10.398437 c -0.351562 -2.953126 -0.265624 -9.65625 -0.101562 -11.746094 c 0.160156 -2.117188 0.460938 -5.546875 0.589844 -6.800782 c 0.011718 -1.742187 -0.179688 -1.585937 -0.167969 -1.589843 c 0 0 4.230469 -0.109375 7 -2.003907 c 2.765625 -1.890624 5.679687 -5.179687 6.96875 -9.242187 c 1.257813 -3.96875 1.105469 -6.570313 0.015625 -6.714844 c -1.082031 -0.136719 -6.101562 8.316407 -10.238281 8.535157 c -6.5625 0.351562 -5.910157 -6.933594 -10.917969 -11.34375 c -5.644531 -4.972657 -14.777344 -5.8125 -14.777344 -5.8125 s 1.519532 -5.882813 1.539063 -10.230469 c 0.066406 -18.984375 -8.527344 -25.210938 -8.527344 -25.210938 s -10.742187 -8.273437 -22.921875 -7.71875 c -12.179688 0.554688 -21.109375 10.578125 -21.109375 10.578125 l -6.183594 30.261719 s -7.121093 -7.609375 4.441407 10.59375 c 3.085937 4.324219 4.015624 5.585937 4.015624 5.585937 z m 0 0" fill="url(#a)"/>
    <path d="m 34.828125 62.839844 s -1.394531 7.371094 -0.046875 14.667968 c 1.359375 7.292969 2.582031 13.746094 2.582031 13.746094 s -0.34375 15.722656 -0.488281 17.960938 c -0.117188 1.640625 -3.375 3.527344 -3.375 6.335937 c 0 2.8125 0.894531 4.351563 4.421875 5.042969 c 4.984375 0.980469 8.652344 -0.972656 10.332031 -3.074219 c 2.046875 -3.859375 1.4375 -5.421875 1.4375 -7.664062 c 0 -2.238281 0.089844 -15.097657 0.628906 -17.074219 c 0.535157 -1.960938 2.402344 -3.089844 3.894532 -2.949219 c 1.488281 0.140625 3.75 2.523438 3.882812 7.015625 c 0.136719 4.484375 0.554688 12.476563 0.421875 14.023438 c -0.136719 1.542968 -1.273437 7.105468 -0.183593 9.210937 c 1.082031 2.097657 4.859374 3.640625 8.644531 3.421875 c 4.960937 -0.277344 5.941406 -1.523437 6.207031 -4.042968 c 0.269531 -2.523438 -0.605469 -8.175782 -0.101562 -11.816407 c 0.015624 -0.109375 1.777343 -13.320312 2.316406 -14.023437 c 0.535156 -0.699219 3.058594 -0.546875 6.679687 -2.246094 c 3.300781 -1.542969 6.308594 -3.085938 6.308594 -3.085938 s 0.652344 6.632813 0.089844 13.515626 c -2.226563 3.40625 -2.675781 6.414062 -2.6875 6.386718 c -0.527344 2.570313 2.488281 4 5.316406 4.269532 c 4.777344 0.464843 7.980469 -2.421876 9.3125 -7.59375 c 1.222656 -3.371094 0.539063 -7.980469 0.269531 -10.226563 c -0.269531 -2.238281 0.140625 -10.242187 0.410156 -12.34375 c 0.269532 -2.101563 0.484376 -3.378906 0.65625 -4.484375 c 0.269532 -1.820312 1.160157 -3.765625 1.160157 -3.765625 s 4.671875 0 7.441406 -1.894531 c 2.765625 -1.890625 5.679687 -5.1875 6.96875 -9.253906 c 1.261719 -3.976563 0.953125 -5.195313 -0.132813 -5.332032 c -1.085937 -0.140625 -5.949218 6.933594 -10.089843 7.152344 c -6.5625 0.351562 -5.910157 -6.941406 -10.917969 -11.355469 c -5.644531 -4.984375 -14.375 -5.613281 -14.375 -5.613281 s 1.453125 -5.886719 1.476562 -10.242188 c 0.0625 -19.015624 -8.867187 -25.460937 -8.867187 -25.460937 s -10.742187 -8.292969 -22.921875 -7.730469 c -12.179688 0.554688 -21.109375 10.589844 -21.109375 10.589844 l -6.703125 30.652344 s -0.214844 -0.148438 2.496094 4.152344 c 2.84375 4.480468 8.644531 13.21875 8.644531 13.21875 z m 0 0" fill="#ffa348"/>
    <path d="m 24.773438 9.507812 c -9.949219 0.210938 -15.207032 9 -15.363282 14.382813 c -0.085937 3.15625 -1.285156 26.113281 10.960938 26.582031 c 4.914062 0.191406 8.566406 -5.722656 10.421875 -12.417968 c 2.335937 -8.4375 2.230469 -16.898438 2.5 -19.148438 c 0.433593 -3.597656 1.152343 -6.238281 1.152343 -6.238281 s -1.210937 -3.339844 -9.671874 -3.160157 z m 0 0" fill="url(#b)"/>
    <path d="m 24.777344 8.109375 c -9.953125 0.210937 -15.210938 8.996094 -15.363282 14.378906 c -0.089843 3.160157 -1.289062 26.117188 10.957032 26.585938 c 4.914062 0.191406 8.566406 -5.71875 10.421875 -12.414063 c 2.335937 -8.441406 2.230469 -16.902344 2.5 -19.152344 c 0.433593 -3.601562 1.152343 -6.238281 1.152343 -6.238281 s -1.210937 -3.339843 -9.667968 -3.160156 z m 0 0" fill="#865e3c"/>
    <path d="m 78.039062 6.039062 c 10.824219 0.417969 14.515626 5.390626 15.5625 8.277344 c 1.152344 3.160156 2.164063 14.429688 0.472657 21.953125 c -1.375 6.140625 -3.453125 9.257813 -8.324219 9.046875 c -4.464844 -0.1875 -6.722656 -6.855468 -10.089844 -15.921875 c -3.246094 -8.769531 -5.519531 -17.402343 -5.941406 -18.523437 c -0.542969 -1.476563 -1.695312 -2.105469 -1.695312 -2.105469 s 1.949218 -3.046875 10.015624 -2.726563 z m 0 0" fill="url(#c)"/>
    <path d="m 78.039062 4.601562 c 10.824219 0.417969 14.515626 5.390626 15.5625 8.285157 c 1.152344 3.15625 2.164063 14.425781 0.472657 21.949219 c -1.375 6.140624 -3.453125 9.257812 -8.328125 9.050781 c -4.460938 -0.191407 -6.71875 -6.859375 -10.085938 -15.925781 c -3.246094 -8.769532 -5.738281 -16.625 -6.160156 -17.746094 c -0.539062 -1.476563 -1.691406 -2.105469 -1.691406 -2.105469 s 2.164062 -3.828125 10.230468 -3.507813 z m 0 0" fill="#865e3c"/>
    <path d="m 65.65625 28.886719 c -5.347656 0.347656 -7.90625 6.507812 -6.769531 12.695312 c 1.222656 6.667969 5.4375 9.824219 10.757812 9.121094 c 5.8125 -0.769531 7.574219 -7.644531 6.832031 -12.839844 c -0.679687 -4.71875 -3.257812 -9.476562 -10.820312 -8.976562 z m 0 0" fill="url(#d)"/>
    <path d="m 65.652344 27.394531 c -5.34375 0.34375 -7.902344 6.507813 -6.765625 12.695313 c 1.222656 6.664062 5.4375 9.824218 10.757812 9.117187 c 5.8125 -0.769531 7.574219 -7.644531 6.832031 -12.835937 c -0.679687 -4.722656 -3.257812 -9.476563 -10.824218 -8.976563 z m 0 0" fill="#e66100"/>
    <path d="m 71.941406 38.683594 c 0 2.910156 -1.558594 5.34375 -4.03125 5.269531 c -3.355468 -0.101563 -4.230468 -3.179687 -4.160156 -5.769531 c 0.078125 -3.03125 1.824219 -4.464844 4.328125 -4.394532 c 2.226563 0.050782 3.863281 1.984376 3.863281 4.894532 z m 0 0" fill="#060401"/>
    <path d="m 43.726562 40.285156 c 0 3.03125 -1.5625 5.5625 -4.03125 5.480469 c -3.355468 -0.097656 -4.230468 -3.308594 -4.160156 -6.007813 c 0.074219 -3.15625 2.164063 -4.503906 4.121094 -4.355468 c 2.222656 0.171875 4.070312 1.855468 4.070312 4.882812 z m 0 0" fill="#060401"/>
    <path d="m 43.726562 41.28125 c 0 3.027344 -1.5625 5.558594 -4.03125 5.476562 c -3.355468 -0.097656 -4.230468 -3.308593 -4.160156 -6.007812 c 0.074219 -3.15625 2.164063 -4.503906 4.125 -4.355469 c 2.21875 0.171875 4.066406 1.855469 4.066406 4.886719 z m 0 0" fill="url(#e)"/>
    <path d="m 56.539062 57.511719 s 6.132813 -0.65625 5.847657 -5.265625 c -0.28125 -4.601563 -4.4375 -4.902344 -7.683594 -4.832032 c -3.246094 0.078126 -7.890625 1.832032 -7.402344 5.703126 c 0.488281 3.875 5.78125 4.382812 5.78125 4.382812 s -0.007812 2.863281 -1.835937 3.074219 c -1.972656 0.21875 -4.796875 -2.929688 -5.566406 -3.726563 c -0.773438 -0.800781 -1.976563 -0.511718 -2.398438 0.144532 c -0.417969 0.652343 -0.140625 2.121093 1.0625 3.363281 c 1.203125 1.246093 4.019531 4.382812 6.84375 4.089843 c 2.824219 -0.289062 2.898438 -1.824218 4.015625 -1.898437 c 1.132813 -0.070313 1.066406 1.683594 3.878906 1.609375 c 1.984375 -0.050781 5.980469 -3.667969 6.703125 -4.308594 c 1.625 -1.464844 2.042969 -2.925781 1.339844 -3.875 c -0.699219 -0.941406 -2.675781 0.4375 -3.734375 1.246094 c -1.0625 0.800781 -2.773437 2.691406 -4.4375 3 c -2.765625 0.511719 -2.414063 -2.707031 -2.414063 -2.707031 z m 0 0" fill="url(#f)"/>
    <path d="m 56.539062 56.84375 s 6.132813 -0.617188 5.847657 -4.945312 c -0.28125 -4.320313 -4.4375 -4.601563 -7.683594 -4.53125 c -3.246094 0.066406 -7.894531 1.714843 -7.402344 5.347656 c 0.488281 3.640625 5.78125 4.117187 5.78125 4.117187 s -0.011719 2.691407 -1.835937 2.886719 c -1.972656 0.203125 -4.796875 -2.75 -5.570313 -3.5 c -0.769531 -0.75 -1.972656 -0.480469 -2.394531 0.136719 c -0.417969 0.613281 -0.140625 1.992187 1.0625 3.160156 s 4.019531 4.113281 6.84375 3.839844 c 2.824219 -0.273438 2.898438 -1.714844 4.015625 -1.78125 c 1.132813 -0.070313 1.066406 1.578125 3.878906 1.507812 c 1.984375 -0.050781 5.980469 -3.441406 6.703125 -4.042969 c 1.625 -1.378906 2.042969 -2.75 1.339844 -3.640624 c -0.699219 -0.886719 -2.675781 0.410156 -3.734375 1.167968 c -1.0625 0.753906 -2.773437 2.527344 -4.4375 2.820313 c -2.765625 0.480469 -2.414063 -2.542969 -2.414063 -2.542969 z m 0 0" fill="#060401"/>
    <path d="m 80.605469 52.136719 s -1.277344 2.910156 -2.347657 5.242187 c -1.289062 2.8125 -3.132812 5.261719 -3.132812 5.261719 s 2.085938 14.789063 14.496094 13.515625 c 4.441406 -0.460938 7.808594 -4.066406 8.121094 -7.894531 c 0.542968 -6.457031 -1.824219 -9.476563 -5.5 -12.425781 c -5.949219 -4.761719 -11.636719 -3.699219 -11.636719 -3.699219 z m 0 0" fill="url(#h)"/>
    <path d="m 80.605469 50.628906 s -1.277344 2.910156 -2.347657 5.242188 c -1.289062 2.8125 -3.132812 5.261718 -3.132812 5.261718 s 2.085938 14.789063 14.496094 13.515626 c 4.441406 -0.460938 7.808594 -4.066407 8.121094 -7.894532 c 0.542968 -6.457031 -1.824219 -9.476562 -5.496094 -12.425781 c -5.953125 -4.761719 -11.640625 -3.699219 -11.640625 -3.699219 z m 0 0" fill="#e66100"/>
    <path d="m 72.007812 74.75 c -2.203124 2.09375 -1.015624 6.03125 1.894532 6.457031 c 2.914062 0.421875 4.480468 -2.089843 4.261718 -3.996093 c -0.328124 -2.949219 -3.644531 -4.84375 -6.15625 -2.460938 z m 0 0" fill="url(#j)"/>
    <path d="m 72.007812 73.761719 c -2.203124 2.089843 -1.015624 6.027343 1.894532 6.453125 c 2.914062 0.417968 4.480468 -2.089844 4.257812 -3.996094 c -0.324218 -2.949219 -3.644531 -4.839844 -6.152344 -2.457031 z m 0 0" fill="#e66100"/>
    <path d="m 43.253906 71.480469 s -1.941406 5.519531 2.164063 12.433593 c 1.75 2.941407 5.640625 4.59375 8.390625 4.484376 c 2.902344 -0.105469 5.53125 -1.15625 7.777344 -4.0625 c 3.585937 -4.632813 2.566406 -12.347657 2.566406 -12.347657 s -5.679688 2.421875 -10.890625 2.242188 c -5.546875 -0.179688 -10.007813 -2.75 -10.007813 -2.75 z m 0 0" fill="url(#k)"/>
    <path d="m 43.253906 69.871094 s -1.941406 5.523437 2.164063 12.441406 c 1.75 2.933594 5.640625 4.589844 8.390625 4.484375 c 2.902344 -0.113281 5.53125 -1.160156 7.777344 -4.066406 c 3.585937 -4.636719 2.566406 -12.351563 2.566406 -12.351563 s -5.679688 2.421875 -10.890625 2.246094 c -5.546875 -0.183594 -10.007813 -2.753906 -10.007813 -2.753906 z m 0 0" fill="#e66100"/>
    <path d="m 36.851562 112.296875 c -1.414062 -0.445313 -1.980468 1.828125 -2.074218 3.269531 c -0.097656 1.445313 -0.089844 3.320313 1.171875 3.785156 c 1.253906 0.46875 1.007812 -2.3125 1.121093 -3.226562 c 0.230469 -1.765625 1.269532 -3.359375 -0.21875 -3.828125 z m 0 0" fill="url(#l)"/>
    <path d="m 36.851562 111.90625 c -1.414062 -0.449219 -1.980468 1.824219 -2.074218 3.265625 c -0.097656 1.445313 -0.089844 3.320313 1.171875 3.789063 c 1.253906 0.464843 1.007812 -2.3125 1.121093 -3.230469 c 0.230469 -1.761719 1.269532 -3.359375 -0.21875 -3.824219 z m 0 0" fill="#e66100"/>
    <path d="m 42.398438 113.175781 c -0.847657 -0.039062 -1.742188 0.847657 -1.84375 3.417969 c -0.089844 2.152344 0 3.925781 1.171874 4.023438 c 1.574219 0.132812 1.132813 -1.960938 1.21875 -3.695313 z m 0 0" fill="url(#m)"/>
    <path d="m 42.398438 112.75 c -0.847657 -0.035156 -1.742188 0.851562 -1.84375 3.421875 c -0.089844 2.152344 0 3.921875 1.171874 4.023437 c 1.574219 0.128907 1.132813 -1.960937 1.21875 -3.699218 c 0.042969 -0.984375 1.214844 -3.652344 -0.546874 -3.746094 z m 0 0" fill="#e66100"/>
    <path d="m 63.609375 115.757812 c -1.355469 0 -1.394531 1.597657 -1.394531 3.320313 c 0 1.730469 -0.347656 3.875 1.171875 4.066406 c 1.847656 0.226563 1.492187 -2.347656 1.492187 -3.789062 c -0.007812 -1.257813 0.207032 -3.597657 -1.269531 -3.597657 z m 0 0" fill="url(#n)"/>
    <path d="m 63.609375 115.347656 c -1.355469 0 -1.394531 1.59375 -1.394531 3.320313 c 0 1.730469 -0.347656 3.875 1.171875 4.066406 c 1.847656 0.226563 1.492187 -2.34375 1.492187 -3.789063 c -0.007812 -1.257812 0.210938 -3.597656 -1.269531 -3.597656 z m 0 0" fill="#e66100"/>
    <path d="m 69.742188 115.429688 c -1.085938 0.230468 -0.988282 1.773437 -0.953126 3.648437 c 0.050782 1.871094 -0.21875 3.855469 1.3125 3.699219 c 1.304688 -0.140625 1.21875 -2.347656 1.171876 -4.03125 c -0.039063 -1.453125 0.140624 -3.6875 -1.53125 -3.316406 z m 0 0" fill="url(#o)"/>
    <path d="m 69.742188 115.027344 c -1.085938 0.230468 -0.988282 1.773437 -0.953126 3.648437 c 0.050782 1.875 -0.21875 3.855469 1.3125 3.699219 c 1.304688 -0.140625 1.21875 -2.339844 1.171876 -4.027344 c -0.042969 -1.453125 0.144531 -3.683594 -1.53125 -3.320312 z m 0 0" fill="#e66100"/>
    <path d="m 89.210938 104.496094 c -0.929688 -0.1875 -1.988282 0.625 -2.257813 2.808594 c -0.21875 1.875 -0.132813 3.519531 1.441406 3.878906 c 0.808594 0.1875 0.953125 -1.964844 0.992188 -3.507813 c 0.046875 -1.335937 1 -2.941406 -0.175781 -3.179687 z m 0 0" fill="url(#p)"/>
    <path d="m 89.210938 104.085938 c -0.929688 -0.1875 -1.988282 0.628906 -2.253907 2.808593 c -0.222656 1.875 -0.136719 3.519531 1.4375 3.875 c 0.808594 0.191407 0.953125 -1.960937 0.992188 -3.503906 c 0.046875 -1.335937 1 -2.941406 -0.175781 -3.179687 z m 0 0" fill="#e66100"/>
    <path d="m 94.308594 105.628906 c -0.894532 -0.148437 -1.769532 0.417969 -1.996094 2.742188 c -0.140625 1.355468 -0.617188 3.789062 1.003906 3.878906 c 1.261719 0.058594 1.167969 -2.085938 1.28125 -3.199219 c 0.183594 -1.765625 1.183594 -3.160156 -0.289062 -3.421875 z m 0 0" fill="url(#q)"/>
    <path d="m 94.308594 105.222656 c -0.894532 -0.148437 -1.769532 0.417969 -1.996094 2.738282 c -0.140625 1.355468 -0.617188 3.789062 1.003906 3.878906 c 1.261719 0.058594 1.167969 -2.085938 1.277344 -3.199219 c 0.1875 -1.765625 1.1875 -3.160156 -0.285156 -3.417969 z m 0 0" fill="#e66100"/>
</svg>
