<?xml version="1.0" encoding="UTF-8"?>
<svg height="16px" viewBox="0 0 16 16" width="16px" xmlns="http://www.w3.org/2000/svg">
    <g fill="#241f31">
        <path d="m 2 3.5 c 0.828125 0 1.5 0.671875 1.5 1.5 v 1.101562 c 0 0.828126 -0.671875 1.5 -1.5 1.5 s -1.5 -0.671874 -1.5 -1.5 v -1.101562 c 0 -0.828125 0.671875 -1.5 1.5 -1.5 z m 0 0"/>
        <path d="m 6 1.5 c 0.828125 0 1.5 0.671875 1.5 1.5 v 1.101562 c 0 0.828126 -0.671875 1.5 -1.5 1.5 s -1.5 -0.671874 -1.5 -1.5 v -1.101562 c 0 -0.828125 0.671875 -1.5 1.5 -1.5 z m 0 0"/>
        <path d="m 10 1.5 c 0.828125 0 1.5 0.671875 1.5 1.5 v 1.101562 c 0 0.828126 -0.671875 1.5 -1.5 1.5 s -1.5 -0.671874 -1.5 -1.5 v -1.101562 c 0 -0.828125 0.671875 -1.5 1.5 -1.5 z m 0 0"/>
        <path d="m 14 3.5 c 0.828125 0 1.5 0.671875 1.5 1.5 v 1.101562 c 0 0.828126 -0.671875 1.5 -1.5 1.5 s -1.5 -0.671874 -1.5 -1.5 v -1.101562 c 0 -0.828125 0.671875 -1.5 1.5 -1.5 z m 0 0"/>
        <path d="m 2.5 11.601562 c 0 1.65625 1.410156 3.167969 3 2.664063 c 0.804688 -0.253906 1.222656 -0.632813 1.707031 -1.050781 c 0.421875 -0.359375 1.164063 -0.359375 1.585938 0 c 0.484375 0.417968 0.898437 0.792968 1.699219 1.046875 c 1.59375 0.507812 3.007812 -1.019531 3.007812 -2.699219 c -0.011719 -2.75 -2.25 -4.972656 -5 -4.960938 h -1 c -2.761719 0 -5 2.238282 -5 5 z m 0 0"/>
    </g>
</svg>
