<?xml version="1.0" encoding="UTF-8"?>
<svg height="16px" viewBox="0 0 16 16" width="16px" xmlns="http://www.w3.org/2000/svg">
    <path d="m 1.886719 0.09375 c -0.996094 0 -1.8007815 1.003906 -1.8007815 2.246094 v 0.46875 c 0 0.882812 0.4062505 1.640625 0.9921875 2.007812 v 5.199219 c 0 2.183594 1.789063 3.96875 3.96875 3.96875 h 5.144531 c 0.417969 1.1875 1.539063 1.980469 2.792969 1.984375 c 1.644531 0 2.976563 -1.332031 2.976563 -2.976562 v -8.929688 c 0 -1.644531 -1.332032 -2.976562 -2.976563 -2.976562 h -4.480469 l -0.675781 0.953124 c -0.457031 0.65625 -1.207031 1.042969 -2.003906 1.042969 h -1.78125 c 0.011719 -0.09375 0.011719 -0.183593 0.011719 -0.273437 v -0.46875 c 0 -1.242188 -0.800782 -2.246094 -1.796876 -2.246094 z m 7.644531 2.976562 h 0.476562 v 8.929688 h -4.960937 c -1.105469 0 -1.984375 -0.875 -1.984375 -1.984375 v -4.949219 h 2.761719 c 1.441406 0 2.792969 -0.703125 3.628906 -1.882812 z m -1.597656 2.484376 c -0.5 0 -0.902344 0.398437 -0.902344 0.898437 v 0.1875 c 0 0.5 0.402344 0.898437 0.902344 0.898437 h 0.183594 c 0.5 0 0.898437 -0.398437 0.898437 -0.898437 v -0.1875 c 0 -0.5 -0.398437 -0.898437 -0.898437 -0.898437 z m 0 0" fill="#241f31"/>
</svg>
