<?xml version="1.0" encoding="UTF-8" standalone="no"?>
<svg
   height="128px"
   viewBox="0 0 128 128"
   width="128px"
   version="1.1"
   id="svg49"
   sodipodi:docname="app.drey.Doggo.Devel.svg"
   inkscape:version="1.3.2 (091e20ef0f, 2023-11-25)"
   xmlns:inkscape="http://www.inkscape.org/namespaces/inkscape"
   xmlns:sodipodi="http://sodipodi.sourceforge.net/DTD/sodipodi-0.dtd"
   xmlns:xlink="http://www.w3.org/1999/xlink"
   xmlns="http://www.w3.org/2000/svg"
   xmlns:svg="http://www.w3.org/2000/svg">
  <defs
     id="defs49" />
  <sodipodi:namedview
     id="namedview49"
     pagecolor="#ffffff"
     bordercolor="#000000"
     borderopacity="0.25"
     inkscape:showpageshadow="2"
     inkscape:pageopacity="0.0"
     inkscape:pagecheckerboard="0"
     inkscape:deskcolor="#d1d1d1"
     inkscape:zoom="4"
     inkscape:cx="40.875"
     inkscape:cy="57.875"
     inkscape:window-width="1920"
     inkscape:window-height="1011"
     inkscape:window-x="0"
     inkscape:window-y="0"
     inkscape:window-maximized="1"
     inkscape:current-layer="svg49" />
  <filter
     id="a"
     height="1"
     width="1"
     x="0"
     y="0">
    <feColorMatrix
       color-interpolation-filters="sRGB"
       values="0 0 0 0 1 0 0 0 0 1 0 0 0 0 1 0 0 0 1 0"
       id="feColorMatrix1" />
  </filter>
  <linearGradient
     id="b"
     gradientUnits="userSpaceOnUse">
    <stop
       offset="0"
       stop-color="#63452c"
       id="stop1" />
    <stop
       offset="1"
       stop-color="#986a44"
       id="stop2" />
  </linearGradient>
  <radialGradient
     id="c"
     cx="34"
     cy="207.745529"
     gradientTransform="matrix(-1.125 0 0 1.749999 128.25 -321.55452)"
     r="16"
     xlink:href="#b" />
  <linearGradient
     id="d"
     gradientTransform="matrix(1 0 0 1.105263 0.000011 -198.315788)"
     gradientUnits="userSpaceOnUse"
     x1="16"
     x2="111.999992"
     y1="250"
     y2="250">
    <stop
       offset="0"
       stop-color="#986a44"
       id="stop3" />
    <stop
       offset="0.125"
       stop-color="#b5835a"
       id="stop4" />
    <stop
       offset="0.25"
       stop-color="#986a44"
       id="stop5" />
    <stop
       offset="0.75"
       stop-color="#986a44"
       id="stop6" />
    <stop
       offset="0.875"
       stop-color="#b5835a"
       id="stop7" />
    <stop
       offset="1"
       stop-color="#986a44"
       id="stop8" />
  </linearGradient>
  <radialGradient
     id="e"
     cx="34"
     cy="207.745529"
     gradientTransform="matrix(1.125 0 0 1.749999 -0.25 -321.55452)"
     r="16"
     xlink:href="#b" />
  <radialGradient
     id="f"
     cx="64"
     cy="259.897278"
     gradientTransform="matrix(1 0 0 0.987695 0 -180.699304)"
     gradientUnits="userSpaceOnUse"
     r="20">
    <stop
       offset="0"
       stop-color="#b5835a"
       id="stop9" />
    <stop
       offset="1"
       stop-color="#865e3c"
       id="stop10" />
  </radialGradient>
  <linearGradient
     id="g"
     gradientUnits="userSpaceOnUse">
    <stop
       offset="0"
       stop-color="#9a9996"
       id="stop11" />
    <stop
       offset="1"
       id="stop12" />
  </linearGradient>
  <radialGradient
     id="h"
     cx="42"
     cy="56"
     r="5"
     xlink:href="#g" />
  <radialGradient
     id="i"
     cx="88"
     cy="56"
     r="5"
     xlink:href="#g" />
  <radialGradient
     id="j"
     cx="66"
     cy="259.571442"
     gradientTransform="matrix(1 0 0 0.583333 0 -76.416672)"
     r="12"
     xlink:href="#g" />
  <clipPath
     id="k">
    <rect
       height="128"
       width="128"
       id="rect12" />
  </clipPath>
  <clipPath
     id="l">
    <rect
       height="128"
       width="128"
       id="rect13" />
  </clipPath>
  <mask
     id="m">
    <g
       filter="url(#a)"
       id="g28">
      <g
         clip-path="url(#l)"
         filter="url(#a)"
         id="g27">
        <g
           clip-path="url(#k)"
           id="g26">
          <path
             d="m 80 55 v -51 c 0 -1.304688 0.746094 -2.496094 1.917969 -3.070312 c 1.171875 -0.570313 2.570312 -0.421876 3.597656 0.378906 l 18.605469 14.535156 c 4.972656 3.886719 7.878906 9.84375 7.878906 16.15625 v 23 c 0 3.867188 -3.132812 7 -7 7 h -18 c -3.867188 0 -7 -3.132812 -7 -7 z m 0 0"
             fill="#b5835a"
             id="path13" />
          <path
             d="m 80 61 v -51 c 0 -1.304688 0.746094 -2.496094 1.917969 -3.070312 c 1.171875 -0.570313 2.570312 -0.421876 3.597656 0.378906 l 18.605469 14.535156 c 4.972656 3.886719 7.878906 9.84375 7.878906 16.15625 v 23 c 0 3.867188 -3.132812 7 -7 7 h -18 c -3.867188 0 -7 -3.132812 -7 -7 z m 0 0"
             fill="url(#c)"
             id="path14" />
          <path
             d="m 44 36 h 40 c 15.464844 0 28 12.535156 28 28 v 28 c 0 15.464844 -12.535156 28 -28 28 h -40 c -15.464844 0 -28 -12.535156 -28 -28 v -28 c 0 -15.464844 12.535156 -28 28 -28 z m 0 0"
             fill="url(#d)"
             id="path15" />
          <path
             d="m 48 55 v -51 c 0 -1.304688 -0.746094 -2.496094 -1.917969 -3.070312 c -1.171875 -0.570313 -2.570312 -0.421876 -3.597656 0.378906 l -18.605469 14.535156 c -4.972656 3.886719 -7.878906 9.84375 -7.878906 16.15625 v 23 c 0 3.867188 3.132812 7 7 7 h 18 c 3.867188 0 7 -3.132812 7 -7 z m 0 0"
             fill="#b5835a"
             id="path16" />
          <path
             d="m 48 61 v -51 c 0 -1.304688 -0.746094 -2.496094 -1.917969 -3.070312 c -1.171875 -0.570313 -2.570312 -0.421876 -3.597656 0.378906 l -18.605469 14.535156 c -4.972656 3.886719 -7.878906 9.84375 -7.878906 16.15625 v 23 c 0 3.867188 3.132812 7 7 7 h 18 c 3.867188 0 7 -3.132812 7 -7 z m 0 0"
             fill="url(#e)"
             id="path17" />
          <path
             d="m 44 24 h 40 c 15.464844 0 28 12.535156 28 28 v 8 c 0 15.464844 -12.535156 28 -28 28 h -40 c -15.464844 0 -28 -12.535156 -28 -28 v -8 c 0 -15.464844 12.535156 -28 28 -28 z m 0 0"
             fill="#b5835a"
             id="path18" />
          <path
             d="m 54 66 l -5.316406 4.25 c -2.960938 2.371094 -4.683594 5.957031 -4.683594 9.75 v 12 c 0 6.628906 5.371094 12 12 12 h 16 c 6.628906 0 12 -5.371094 12 -12 v -12 c 0 -3.792969 -1.722656 -7.378906 -4.683594 -9.75 l -5.316406 -4.25 c -5.847656 -4.675781 -14.152344 -4.675781 -20 0 z m 0 0"
             fill="url(#f)"
             id="path19" />
          <path
             d="m 36 38 h 4 c 7.730469 0 14 6.269531 14 14 v 4 c 0 7.730469 -6.269531 14 -14 14 h -4 c -7.730469 0 -14 -6.269531 -14 -14 v -4 c 0 -7.730469 6.269531 -14 14 -14 z m 0 0"
             fill="#986a44"
             id="path20" />
          <path
             d="m 46 57 c 0 2.761719 -2.238281 5 -5 5 s -5 -2.238281 -5 -5 s 2.238281 -5 5 -5 s 5 2.238281 5 5 z m 0 0"
             fill="url(#h)"
             id="path21" />
          <path
             d="m 92 57 c 0 2.761719 -2.238281 5 -5 5 s -5 -2.238281 -5 -5 s 2.238281 -5 5 -5 s 5 2.238281 5 5 z m 0 0"
             fill="url(#i)"
             id="path22" />
          <path
             d="m 64 262 v 10"
             fill="none"
             stroke="#2f2115"
             stroke-linecap="round"
             stroke-linejoin="round"
             stroke-width="2"
             transform="matrix(1 0 0 1 0 -186)"
             id="path23" />
          <path
             d="m 64 272 c 0 4.417969 -3.582031 8 -8 8"
             fill="none"
             stroke="#2f2115"
             stroke-linecap="round"
             stroke-linejoin="round"
             stroke-width="2"
             transform="matrix(1 0 0 1 0 -186)"
             id="path24" />
          <path
             d="m -64 272 c 0 4.417969 -3.582031 8 -8 8"
             fill="none"
             stroke="#2f2115"
             stroke-linecap="round"
             stroke-linejoin="round"
             stroke-width="2"
             transform="matrix(-1 0 0 1 0 -186)"
             id="path25" />
          <path
             d="m 59 70 h 10 c 3.867188 0 7 3.132812 7 7 s -3.132812 7 -7 7 h -10 c -3.867188 0 -7 -3.132812 -7 -7 s 3.132812 -7 7 -7 z m 0 0"
             fill="url(#j)"
             id="path26" />
        </g>
      </g>
    </g>
  </mask>
  <mask
     id="n">
    <g
       filter="url(#a)"
       id="g29">
      <rect
         fill-opacity="0.8"
         height="184.32"
         width="184.32"
         x="-28.16"
         y="-28.16"
         id="rect28" />
    </g>
  </mask>
  <linearGradient
     id="o"
     gradientTransform="matrix(0 0.37 -0.98462 0 295.38501 -30.360001)"
     gradientUnits="userSpaceOnUse"
     x1="300"
     x2="428"
     y1="235"
     y2="235">
    <stop
       offset="0"
       stop-color="#f9f06b"
       id="stop29" />
    <stop
       offset="1"
       stop-color="#f5c211"
       id="stop30" />
  </linearGradient>
  <clipPath
     id="p">
    <rect
       height="128"
       width="128"
       id="rect30" />
  </clipPath>
  <clipPath
     id="q">
    <rect
       height="128"
       width="128"
       id="rect31" />
  </clipPath>
  <path
     d="m 80 55 v -51 c 0 -1.304688 0.746094 -2.496094 1.917969 -3.070312 c 1.171875 -0.570313 2.570312 -0.421876 3.597656 0.378906 l 18.605469 14.535156 c 4.972656 3.886719 7.878906 9.84375 7.878906 16.15625 v 23 c 0 3.867188 -3.132812 7 -7 7 h -18 c -3.867188 0 -7 -3.132812 -7 -7 z m 0 0"
     fill="#b5835a"
     id="path31" />
  <path
     d="m 80 61 v -51 c 0 -1.304688 0.746094 -2.496094 1.917969 -3.070312 c 1.171875 -0.570313 2.570312 -0.421876 3.597656 0.378906 l 18.605469 14.535156 c 4.972656 3.886719 7.878906 9.84375 7.878906 16.15625 v 23 c 0 3.867188 -3.132812 7 -7 7 h -18 c -3.867188 0 -7 -3.132812 -7 -7 z m 0 0"
     fill="url(#c)"
     id="path32" />
  <path
     d="m 44 36 h 40 c 15.464844 0 28 12.535156 28 28 v 28 c 0 15.464844 -12.535156 28 -28 28 h -40 c -15.464844 0 -28 -12.535156 -28 -28 v -28 c 0 -15.464844 12.535156 -28 28 -28 z m 0 0"
     fill="url(#d)"
     id="path33" />
  <g
     mask="url(#m)"
     id="g49">
    <g
       clip-path="url(#q)"
       id="g48">
      <g
         mask="url(#n)"
         id="g47">
        <g
           clip-path="url(#p)"
           id="g46">
          <path
             d="m 128 80.640625 v 47.359375 h -128 v -47.359375 z m 0 0"
             fill="url(#o)"
             id="path45" />
          <path
             d="m 13.308594 80.640625 l 47.355468 47.359375 h 21.214844 l -47.359375 -47.359375 z m 42.421875 0 l 47.363281 47.359375 h 21.214844 l -47.363282 -47.359375 z m 42.429687 0 l 29.839844 29.839844 v -21.210938 l -8.628906 -8.628906 z m -98.160156 7.90625 v 21.214844 l 18.238281 18.238281 h 21.214844 z m 0 0"
             id="path46" />
        </g>
      </g>
    </g>
  </g>
  <path
     d="m 48 55 v -51 c 0 -1.304688 -0.746094 -2.496094 -1.917969 -3.070312 c -1.171875 -0.570313 -2.570312 -0.421876 -3.597656 0.378906 l -18.605469 14.535156 c -4.972656 3.886719 -7.878906 9.84375 -7.878906 16.15625 v 23 c 0 3.867188 3.132812 7 7 7 h 18 c 3.867188 0 7 -3.132812 7 -7 z m 0 0"
     fill="#b5835a"
     id="path34" />
  <path
     d="m 48 61 v -51 c 0 -1.304688 -0.746094 -2.496094 -1.917969 -3.070312 c -1.171875 -0.570313 -2.570312 -0.421876 -3.597656 0.378906 l -18.605469 14.535156 c -4.972656 3.886719 -7.878906 9.84375 -7.878906 16.15625 v 23 c 0 3.867188 3.132812 7 7 7 h 18 c 3.867188 0 7 -3.132812 7 -7 z m 0 0"
     fill="url(#e)"
     id="path35" />
  <path
     d="m 44 24 h 40 c 15.464844 0 28 12.535156 28 28 v 8 c 0 15.464844 -12.535156 28 -28 28 h -40 c -15.464844 0 -28 -12.535156 -28 -28 v -8 c 0 -15.464844 12.535156 -28 28 -28 z m 0 0"
     fill="#b5835a"
     id="path36" />
  <path
     d="m 54 66 l -5.316406 4.25 c -2.960938 2.371094 -4.683594 5.957031 -4.683594 9.75 v 12 c 0 6.628906 5.371094 12 12 12 h 16 c 6.628906 0 12 -5.371094 12 -12 v -12 c 0 -3.792969 -1.722656 -7.378906 -4.683594 -9.75 l -5.316406 -4.25 c -5.847656 -4.675781 -14.152344 -4.675781 -20 0 z m 0 0"
     fill="url(#f)"
     id="path37" />
  <path
     d="m 36 38 h 4 c 7.730469 0 14 6.269531 14 14 v 4 c 0 7.730469 -6.269531 14 -14 14 h -4 c -7.730469 0 -14 -6.269531 -14 -14 v -4 c 0 -7.730469 6.269531 -14 14 -14 z m 0 0"
     fill="#986a44"
     id="path38" />
  <path
     d="m 46 57 c 0 2.761719 -2.238281 5 -5 5 s -5 -2.238281 -5 -5 s 2.238281 -5 5 -5 s 5 2.238281 5 5 z m 0 0"
     fill="url(#h)"
     id="path39" />
  <path
     d="m 92 57 c 0 2.761719 -2.238281 5 -5 5 s -5 -2.238281 -5 -5 s 2.238281 -5 5 -5 s 5 2.238281 5 5 z m 0 0"
     fill="url(#i)"
     id="path40" />
  <g
     fill="none"
     stroke="#2f2115"
     stroke-linecap="round"
     stroke-linejoin="round"
     stroke-width="2"
     id="g43">
    <path
       d="m 64 76 v 10"
       id="path41" />
    <path
       d="m 64 86 c 0 4.417969 -3.582031 8 -8 8"
       id="path42" />
    <path
       d="m -64 272 c 0 4.417969 -3.582031 8 -8 8"
       transform="matrix(-1 0 0 1 0 -186)"
       id="path43" />
  </g>
  <path
     d="m 59 70 h 10 c 3.867188 0 7 3.132812 7 7 s -3.132812 7 -7 7 h -10 c -3.867188 0 -7 -3.132812 -7 -7 s 3.132812 -7 7 -7 z m 0 0"
     fill="url(#j)"
     id="path44" />
</svg>
