<?xml version="1.0" encoding="UTF-8"?>
<svg height="128px" viewBox="0 0 128 128" width="128px" xmlns="http://www.w3.org/2000/svg" xmlns:xlink="http://www.w3.org/1999/xlink">
    <filter id="a" height="100%" width="100%" x="0%" y="0%">
        <feColorMatrix color-interpolation-filters="sRGB" values="0 0 0 0 1 0 0 0 0 1 0 0 0 0 1 0 0 0 1 0"/>
    </filter>
    <linearGradient id="b" gradientTransform="matrix(1.10574 0 0 1.061715 -6.797576 -181.338389)" gradientUnits="userSpaceOnUse" x1="17" x2="111.05468" y1="233.027344" y2="233.027344">
        <stop offset="0" stop-color="#ffba48"/>
        <stop offset="0.5" stop-color="#ff7f37"/>
        <stop offset="1" stop-color="#ffba48"/>
    </linearGradient>
    <clipPath id="c">
        <rect height="128" width="128"/>
    </clipPath>
    <clipPath id="d">
        <rect height="128" width="128"/>
    </clipPath>
    <mask id="e">
        <g filter="url(#a)">
            <g clip-path="url(#d)" filter="url(#a)">
                <g clip-path="url(#c)">
                    <path d="m 23.78125 16.140625 c -6.527344 0 -11.78125 6.3125 -11.78125 14.140625 v 2.925781 c 0 5.558594 2.640625 10.335938 6.5 12.652344 v 32.695313 c 0 13.722656 11.703125 24.964843 26 24.964843 h 33.691406 c 2.746094 7.457031 10.082032 12.457031 18.308594 12.480469 c 10.765625 0 19.5 -8.386719 19.5 -18.722656 v -56.171875 c 0 -10.335938 -8.734375 -18.722657 -19.5 -18.722657 h -29.375 l -4.417969 5.996094 c -3 4.121094 -7.898437 6.558594 -13.128906 6.558594 h -11.652344 c 0.050781 -0.585938 0.074219 -1.144531 0.074219 -1.730469 v -2.925781 c 0 -7.828125 -5.253906 -14.140625 -11.78125 -14.140625 z m 50.097656 18.722656 h 3.121094 v 56.171875 h -32.5 c -7.261719 0 -13 -5.507812 -13 -12.480468 v -31.136719 h 18.078125 c 9.445313 0 18.308594 -4.410157 23.765625 -11.847657 z m -10.488281 13.828125 c -3.277344 0 -5.890625 2.539063 -5.890625 5.683594 v 1.167969 c 0 7.761719 13 7.453125 13 0 v -1.167969 c 0 -3.144531 -2.613281 -5.683594 -5.890625 -5.683594 z m 0 0" fill="url(#b)"/>
                    <path d="m 23.78125 12 c -6.527344 0 -11.78125 6.3125 -11.78125 14.140625 v 2.925781 c 0 5.558594 2.640625 10.335938 6.5 12.652344 v 32.691406 c 0 13.726563 11.703125 24.964844 26 24.964844 h 33.691406 c 2.746094 7.460938 10.082032 12.460938 18.308594 12.484375 c 10.765625 0 19.5 -8.386719 19.5 -18.722656 v -56.171875 c 0 -10.335938 -8.734375 -18.722656 -19.5 -18.722656 h -29.375 l -4.417969 5.996093 c -3 4.121094 -7.898437 6.558594 -13.128906 6.558594 h -11.652344 c 0.050781 -0.585937 0.074219 -1.144531 0.074219 -1.730469 v -2.925781 c 0 -7.828125 -5.253906 -14.140625 -11.78125 -14.140625 z m 50.097656 18.722656 h 3.121094 v 56.171875 h -32.5 c -7.261719 0 -13 -5.511719 -13 -12.484375 v -31.132812 h 18.078125 c 9.445313 0 18.308594 -4.410156 23.765625 -11.847656 z m -10.488281 15.511719 c -3.277344 0 -5.890625 2.511719 -5.890625 5.65625 v 1.167969 c 0 7.761718 13 7.453125 13 0 v -1.167969 c 0 -3.144531 -2.613281 -5.65625 -5.890625 -5.65625 z m 0 0" fill="#ffa348"/>
                </g>
            </g>
        </g>
    </mask>
    <mask id="f">
        <g filter="url(#a)">
            <rect fill-opacity="0.8" height="184.32" width="184.32" x="-28.16" y="-28.16"/>
        </g>
    </mask>
    <linearGradient id="g" gradientTransform="matrix(0 0.37 -0.98462 0 295.38501 -30.360001)" gradientUnits="userSpaceOnUse" x1="300" x2="428" y1="235" y2="235">
        <stop offset="0" stop-color="#f9f06b"/>
        <stop offset="1" stop-color="#f5c211"/>
    </linearGradient>
    <clipPath id="h">
        <rect height="128" width="128"/>
    </clipPath>
    <clipPath id="i">
        <rect height="128" width="128"/>
    </clipPath>
    <path d="m 23.78125 16.140625 c -6.527344 0 -11.78125 6.3125 -11.78125 14.140625 v 2.925781 c 0 5.558594 2.640625 10.335938 6.5 12.652344 v 32.695313 c 0 13.722656 11.703125 24.964843 26 24.964843 h 33.691406 c 2.746094 7.457031 10.082032 12.457031 18.308594 12.480469 c 10.765625 0 19.5 -8.386719 19.5 -18.722656 v -56.171875 c 0 -10.335938 -8.734375 -18.722657 -19.5 -18.722657 h -29.375 l -4.417969 5.996094 c -3 4.121094 -7.898437 6.558594 -13.128906 6.558594 h -11.652344 c 0.050781 -0.585938 0.074219 -1.144531 0.074219 -1.730469 v -2.925781 c 0 -7.828125 -5.253906 -14.140625 -11.78125 -14.140625 z m 50.097656 18.722656 h 3.121094 v 56.171875 h -32.5 c -7.261719 0 -13 -5.507812 -13 -12.480468 v -31.136719 h 18.078125 c 9.445313 0 18.308594 -4.410157 23.765625 -11.847657 z m -10.488281 13.828125 c -3.277344 0 -5.890625 2.539063 -5.890625 5.683594 v 1.167969 c 0 7.761719 13 7.453125 13 0 v -1.167969 c 0 -3.144531 -2.613281 -5.683594 -5.890625 -5.683594 z m 0 0" fill="url(#b)"/>
    <path d="m 23.78125 12 c -6.527344 0 -11.78125 6.3125 -11.78125 14.140625 v 2.925781 c 0 5.558594 2.640625 10.335938 6.5 12.652344 v 32.691406 c 0 13.726563 11.703125 24.964844 26 24.964844 h 33.691406 c 2.746094 7.460938 10.082032 12.460938 18.308594 12.484375 c 10.765625 0 19.5 -8.386719 19.5 -18.722656 v -56.171875 c 0 -10.335938 -8.734375 -18.722656 -19.5 -18.722656 h -29.375 l -4.417969 5.996093 c -3 4.121094 -7.898437 6.558594 -13.128906 6.558594 h -11.652344 c 0.050781 -0.585937 0.074219 -1.144531 0.074219 -1.730469 v -2.925781 c 0 -7.828125 -5.253906 -14.140625 -11.78125 -14.140625 z m 50.097656 18.722656 h 3.121094 v 56.171875 h -32.5 c -7.261719 0 -13 -5.511719 -13 -12.484375 v -31.132812 h 18.078125 c 9.445313 0 18.308594 -4.410156 23.765625 -11.847656 z m -10.488281 15.511719 c -3.277344 0 -5.890625 2.511719 -5.890625 5.65625 v 1.167969 c 0 7.761718 13 7.453125 13 0 v -1.167969 c 0 -3.144531 -2.613281 -5.65625 -5.890625 -5.65625 z m 0 0" fill="#ffa348"/>
    <g mask="url(#e)">
        <g clip-path="url(#i)">
            <g mask="url(#f)">
                <g clip-path="url(#h)">
                    <path d="m 128 80.640625 v 47.359375 h -128 v -47.359375 z m 0 0" fill="url(#g)"/>
                    <path d="m 13.308594 80.640625 l 47.355468 47.359375 h 21.214844 l -47.359375 -47.359375 z m 42.421875 0 l 47.363281 47.359375 h 21.214844 l -47.363282 -47.359375 z m 42.429687 0 l 29.839844 29.839844 v -21.210938 l -8.628906 -8.628906 z m -98.160156 7.90625 v 21.214844 l 18.238281 18.238281 h 21.214844 z m 0 0"/>
                </g>
            </g>
        </g>
    </g>
</svg>
