<?xml version="1.0" encoding="UTF-8"?>
<svg height="128px" viewBox="0 0 128 128" width="128px" xmlns="http://www.w3.org/2000/svg" xmlns:xlink="http://www.w3.org/1999/xlink">
    <linearGradient id="a" gradientUnits="userSpaceOnUse" x1="17.000003" x2="114.53818618316" y1="66.81357273973" y2="66.81357273973">
        <stop offset="0" stop-color="#ffba48"/>
        <stop offset="0.5" stop-color="#ff9348"/>
        <stop offset="1" stop-color="#ffba48"/>
    </linearGradient>
    <path d="m 28.050781 18.042969 c -6.121093 0 -11.050781 6.167969 -11.050781 13.8125 v 2.859375 c 0 5.429687 2.476562 10.09375 6.097656 12.359375 v 31.929687 c 0 13.410156 10.976563 24.386719 24.382813 24.386719 h 31.601562 c 2.570313 7.285156 9.453125 12.167969 17.167969 12.191406 c 10.097656 0 18.289062 -8.191406 18.289062 -18.289062 v -54.863281 c 0 -10.097657 -8.191406 -18.289063 -18.289062 -18.289063 h -27.550781 l -4.144531 5.859375 c -2.808594 4.023438 -7.40625 6.40625 -12.3125 6.40625 h -10.929688 c 0.050781 -0.574219 0.074219 -1.121094 0.074219 -1.691406 v -2.859375 c 0 -7.644531 -4.929688 -13.8125 -11.050781 -13.8125 z m 46.980469 18.289062 h 2.929688 v 54.867188 h -30.480469 c -6.808594 0 -12.191407 -5.382813 -12.191407 -12.195313 v -30.40625 h 16.953126 c 8.859374 0 17.171874 -4.3125 22.289062 -11.574218 z m -9.832031 12.191407 c -3.074219 0 -5.527344 2.453124 -5.527344 5.527343 v 1.140625 c 0 3.074219 2.453125 5.527344 5.527344 5.527344 h 1.140625 c 3.074218 0 5.527344 -2.453125 5.527344 -5.527344 v -1.140625 c 0 -3.074219 -2.453126 -5.527343 -5.527344 -5.527343 z m 0 0" fill="url(#a)"/>
    <path d="m 28.050781 14 c -6.121093 0 -11.050781 6.167969 -11.050781 13.8125 v 2.855469 c 0 5.429687 2.476562 10.097656 6.097656 12.359375 v 31.933594 c 0 13.40625 10.976563 24.386718 24.382813 24.386718 h 31.601562 c 2.570313 7.285156 9.453125 12.167969 17.167969 12.191406 c 10.097656 0 18.289062 -8.191406 18.289062 -18.289062 v -54.867188 c 0 -10.09375 -8.191406 -18.285156 -18.289062 -18.285156 h -27.550781 l -4.144531 5.855469 c -2.808594 4.023437 -7.40625 6.40625 -12.3125 6.40625 h -10.929688 c 0.050781 -0.570313 0.074219 -1.117187 0.074219 -1.691406 v -2.855469 c 0 -7.644531 -4.929688 -13.8125 -11.050781 -13.8125 z m 46.980469 18.289062 h 2.929688 v 54.863282 h -30.480469 c -6.808594 0 -12.191407 -5.378906 -12.191407 -12.191406 v -30.410157 h 16.953126 c 8.859374 0 17.171874 -4.308593 22.289062 -11.570312 z m -9.832031 12.191407 c -3.074219 0 -5.527344 2.453125 -5.527344 5.523437 v 1.144532 c 0 3.070312 2.453125 5.523437 5.527344 5.523437 h 1.140625 c 3.074218 0 5.527344 -2.453125 5.527344 -5.523437 v -1.144532 c 0 -3.070312 -2.453126 -5.523437 -5.527344 -5.523437 z m 0 0" fill="#ffa348"/>
</svg>
