<?xml version="1.0" encoding="UTF-8"?>
<svg height="128px" viewBox="0 0 128 128" width="128px" xmlns="http://www.w3.org/2000/svg" xmlns:xlink="http://www.w3.org/1999/xlink">
    <filter id="a" height="100%" width="100%" x="0%" y="0%">
        <feColorMatrix color-interpolation-filters="sRGB" values="0 0 0 0 1 0 0 0 0 1 0 0 0 0 1 0 0 0 1 0"/>
    </filter>
    <linearGradient id="b" gradientTransform="matrix(1.398584 0 0 1.396472 -27.062478 -266.723602)" gradientUnits="userSpaceOnUse" x1="36.445473" x2="101.97435" y1="234.826645" y2="234.826645">
        <stop offset="0" stop-color="#ff8838"/>
        <stop offset="1" stop-color="#984100"/>
    </linearGradient>
    <linearGradient id="c" gradientUnits="userSpaceOnUse" x1="9.99999854267" x2="34.33949995131" y1="26.23480539624" y2="26.23480539624">
        <stop offset="0" stop-color="#b38156"/>
        <stop offset="1" stop-color="#865f3c"/>
    </linearGradient>
    <linearGradient id="d" gradientUnits="userSpaceOnUse" x1="66.6834514337" x2="93.0200384878" y1="22.14936251349" y2="22.14936251349">
        <stop offset="0" stop-color="#b48755"/>
        <stop offset="1" stop-color="#865e3c"/>
    </linearGradient>
    <linearGradient id="e" gradientTransform="matrix(1.34216 0 0 1.34209 -23.639398 -257.410503)" gradientUnits="userSpaceOnUse" x1="60.660801" x2="73.676498" y1="218.378662" y2="218.378662">
        <stop offset="0" stop-color="#ff7e1f"/>
        <stop offset="1" stop-color="#e56000"/>
    </linearGradient>
    <linearGradient id="f" gradientUnits="userSpaceOnUse" x1="35.39038478024" x2="43.33578244176" y1="37.85899785242" y2="37.85899785242">
        <stop offset="0" stop-color="#060401"/>
        <stop offset="1" stop-opacity="0.2"/>
    </linearGradient>
    <linearGradient id="g" gradientUnits="userSpaceOnUse" x1="42.72914103742" x2="66.33986549818" y1="51.68826184474" y2="51.68826184474">
        <stop offset="0" stop-opacity="0.2"/>
        <stop offset="1" stop-color="#060401"/>
    </linearGradient>
    <linearGradient id="h" gradientUnits="userSpaceOnUse">
        <stop offset="0" stop-color="#ff7d1f"/>
        <stop offset="1" stop-color="#e66100"/>
    </linearGradient>
    <linearGradient id="i" x1="73.7765981589" x2="95.78213279825" xlink:href="#h" y1="59.23237541022" y2="59.23237541022"/>
    <linearGradient id="j" gradientUnits="userSpaceOnUse">
        <stop offset="0" stop-color="#ff7d1f"/>
        <stop offset="1" stop-color="#e56100"/>
    </linearGradient>
    <linearGradient id="k" x1="69.65224107493" x2="76.74270951176" xlink:href="#j" y1="72.65432303515" y2="72.65432303515"/>
    <linearGradient id="l" x1="42.43253213987" x2="63.27042256364" xlink:href="#j" y1="74.46149635783" y2="74.46149635783"/>
    <linearGradient id="m" x1="33.94435659566" x2="36.75636217331" xlink:href="#j" y1="110.72594860337" y2="110.72594860337"/>
    <linearGradient id="n" x1="39.55736089489" x2="42.3073602509" xlink:href="#j" y1="111.77042327662" y2="111.77042327662"/>
    <linearGradient id="o" x1="61.22908229606" x2="63.87008440662" xlink:href="#h" y1="114.14893850541" y2="114.14893850541"/>
    <linearGradient id="p" gradientUnits="userSpaceOnUse" x1="67.61708394721" x2="70.06308009206" y1="113.79047492234" y2="113.79047492234">
        <stop offset="0" stop-color="#ff7e1f"/>
        <stop offset="1" stop-color="#e56100"/>
    </linearGradient>
    <linearGradient id="q" x1="84.05923243999" x2="86.9022292405" xlink:href="#h" y1="102.49067114663" y2="102.49067114663"/>
    <linearGradient id="r" x1="89.17273106504" x2="92.04273452259" xlink:href="#j" y1="103.55468309206" y2="103.55468309206"/>
    <clipPath id="s">
        <rect height="128" width="128"/>
    </clipPath>
    <clipPath id="t">
        <rect height="128" width="128"/>
    </clipPath>
    <mask id="u">
        <g filter="url(#a)">
            <g clip-path="url(#t)" filter="url(#a)">
                <g clip-path="url(#s)">
                    <path d="m 33.164062 60.085938 s -1.394531 6.421874 -0.089843 13.480468 c 1.3125 7.0625 2.652343 13.902344 2.652343 13.902344 s 0.058594 13.769531 -0.332031 15.265625 c -0.394531 1.496094 -3.414062 3.394531 -3.414062 6.113281 c 0 2.722656 0.960937 6.15625 5.816406 6.976563 c 4.855469 0.820312 8.789063 -0.859375 10.414063 -2.894531 c 2.335937 -2.941407 1.882812 -5.027344 1.882812 -7.195313 c 0 -2.171875 0.128906 -14.664063 0.652344 -16.574219 c 0.519531 -1.898437 1.3125 -2.988281 2.757812 -2.855468 c 1.445313 0.136718 3.019532 2.441406 3.148438 6.792968 c 0.132812 4.339844 0.261718 11.953125 0.132812 13.445313 c -0.132812 1.496093 -1.445312 6.523437 -0.390625 8.558593 c 1.050781 2.035157 5.816407 4.011719 9.488281 3.800782 c 4.808594 -0.269532 7.699219 -3.398438 7.957032 -5.835938 c 0.261718 -2.441406 -1.3125 -8.015625 -1.3125 -9.648437 c 0 -1.628907 1.835937 -12.761719 2.359375 -13.445313 c 0.519531 -0.675781 2.125 -0.53125 5.636719 -2.171875 c 3.199218 -1.496093 4.925781 -3.054687 4.925781 -3.054687 s 0.003906 10.21875 -0.125 11.296875 c -0.148438 1.085937 -2.628907 3.222656 -2.996094 5.90625 c -0.28125 2.039062 1.621094 5.40625 6.4375 5.554687 c 5.660156 0.671875 9.808594 -3.382812 10.984375 -6.765625 c 1.507812 -3.839843 0.929688 -8.015625 0.667969 -10.203125 c -0.34375 -2.863281 -0.378907 -9.421875 -0.222657 -11.449218 c 0.15625 -2.050782 0.8125 -5.074219 0.9375 -6.289063 c 0.011719 -1.6875 0.007813 -1.660156 0.019532 -1.664063 c 0 0 4.101562 -0.105468 6.785156 -1.941406 c 2.683594 -1.832031 5.507812 -5.023437 6.757812 -8.960937 c 1.21875 -3.847657 1.070313 -6.371094 0.015626 -6.507813 c -1.050782 -0.132812 -5.917969 8.0625 -9.925782 8.273438 c -6.363281 0.339844 -5.730468 -6.722656 -10.585937 -10.996094 c -5.472657 -4.824219 -14.328125 -5.636719 -14.328125 -5.636719 s 1.472656 -5.703125 1.492187 -9.917969 c 0.066407 -18.40625 -8.265625 -24.441406 -8.265625 -24.441406 s -10.414062 -8.023437 -22.222656 -7.484375 c -11.808594 0.539063 -20.46875 10.253907 -20.46875 10.253907 l -5.992188 29.339843 s 1.511719 5.992188 4.8125 10.015625 c 3.304688 4.066406 4.066407 5.742188 4.066407 5.742188 z m 0 0" fill="url(#b)"/>
                    <path d="m 33.164062 58.679688 s -2.226562 6.664062 -0.921874 13.738281 c 1.316406 7.070312 3.152343 13.601562 3.152343 13.601562 s 0.390625 13.871094 0 15.371094 c -0.394531 1.496094 -3.433593 4.648437 -3.433593 7.371094 c 0 2.726562 0.980468 4.917969 5.835937 5.738281 s 8.789063 -0.859375 10.414063 -2.898438 c 2.339843 -2.945312 1.882812 -5.035156 1.882812 -7.207031 s 0.128906 -14.683593 0.652344 -16.597656 c 0.519531 -1.902344 1.3125 -2.996094 2.757812 -2.859375 c 1.445313 0.136719 3.019532 2.445312 3.148438 6.800781 c 0.132812 4.347657 0.261718 11.96875 0.132812 13.46875 c -0.132812 1.496094 -1.445312 6.53125 -0.390625 8.570313 c 1.050781 2.035156 5.816407 4.015625 9.488281 3.804687 c 4.808594 -0.269531 7.699219 -3.402343 7.957032 -5.84375 c 0.261718 -2.445312 -1.3125 -8.03125 -1.3125 -9.664062 c 0 -1.632813 1.835937 -12.78125 2.359375 -13.464844 c 0.519531 -0.675781 2.125 -0.53125 5.636719 -2.175781 c 3.199218 -1.496094 4.902343 -2.992188 4.902343 -2.992188 s 0.355469 12.796875 -0.3125 13.101563 c -1.9375 2.816406 -2.417969 3.203125 -1.996093 5.800781 c 0.394531 2.453125 2.597656 3.738281 5.339843 4 c 4.632813 0.453125 9.527344 -2.257812 10.820313 -7.273438 c 1.183594 -3.265624 0.652344 -7.339843 0.390625 -9.515624 c -0.257813 -2.171876 -0.257813 -9.796876 0 -11.835938 c 0.261719 -2.035156 0.691406 -3.273438 0.859375 -4.347656 c 0.261718 -1.765625 0.195312 -3.738282 0.195312 -3.738282 s 4.53125 0 7.214844 -1.835937 c 2.683594 -1.832031 5.507812 -5.03125 6.757812 -8.972656 c 1.222657 -3.855469 0.921876 -5.035157 -0.128906 -5.167969 c -1.054687 -0.136719 -5.769531 6.722656 -9.78125 6.933594 c -6.363281 0.339844 -5.730468 -6.730469 -10.585937 -11.011719 c -5.472657 -4.832031 -14 -5.441406 -14 -5.441406 s 1.472656 -5.707031 1.492187 -9.929688 c 0.0625 -18.433593 -8.59375 -24.683593 -8.59375 -24.683593 s -10.414062 -8.039063 -22.222656 -7.496094 c -11.808594 0.539062 -20.46875 10.269531 -20.46875 10.269531 l -6.496094 29.714844 s 1.640625 5.710937 4.269532 9.867187 c 2.757812 4.34375 4.984374 6.800782 4.984374 6.800782 z m 0 0" fill="#ffa348"/>
                    <path d="m 24.960938 6.378906 c -9.644532 0.203125 -14.742188 8.722656 -14.894532 13.941406 c -0.082031 3.0625 -1.246094 25.320313 10.628906 25.773438 c 4.761719 0.183594 8.304688 -5.546875 10.101563 -12.039062 c 2.265625 -8.179688 2.164063 -16.382813 2.425781 -18.566407 c 0.417969 -3.488281 1.117188 -6.046875 1.117188 -6.046875 s -1.175782 -3.238281 -9.378906 -3.0625 z m 0 0" fill="url(#c)"/>
                    <path d="m 24.964844 5.707031 c -9.648438 0.203125 -14.746094 8.722657 -14.894532 13.941407 c -0.085937 3.0625 -1.25 25.320312 10.625 25.773437 c 4.761719 0.183594 8.304688 -5.542969 10.101563 -12.035156 c 2.265625 -8.183594 2.164063 -16.386719 2.425781 -18.570313 c 0.417969 -3.488281 1.117188 -6.046875 1.117188 -6.046875 s -1.175782 -3.238281 -9.375 -3.0625 z m 0 0" fill="#865e3c"/>
                    <path d="m 76.601562 3.113281 c 10.496094 0.40625 14.074219 5.226563 15.089844 8.027344 c 1.117188 3.0625 2.097656 13.988281 0.457032 21.28125 c -1.332032 5.953125 -3.347657 8.976563 -8.070313 8.773437 c -4.328125 -0.183593 -6.515625 -6.648437 -9.78125 -15.4375 c -3.148437 -8.503906 -5.351563 -16.871093 -5.761719 -17.960937 c -0.523437 -1.429687 -1.640625 -2.039063 -1.640625 -2.039063 s 1.886719 -2.953124 9.707031 -2.644531 z m 0 0" fill="url(#d)"/>
                    <path d="m 76.601562 2.304688 c 10.496094 0.40625 14.074219 5.226562 15.089844 8.03125 c 1.117188 3.0625 2.097656 13.988281 0.457032 21.28125 c -1.332032 5.953124 -3.347657 8.976562 -8.074219 8.773437 c -4.324219 -0.183594 -6.511719 -6.648437 -9.777344 -15.4375 c -3.148437 -8.503906 -5.5625 -16.117187 -5.972656 -17.207031 c -0.523438 -1.429688 -1.640625 -2.039063 -1.640625 -2.039063 s 2.097656 -3.710937 9.917968 -3.402343 z m 0 0" fill="#865e3c"/>
                    <path d="m 64.597656 25.070312 c -5.183594 0.335938 -7.664062 6.308594 -6.5625 12.308594 c 1.183594 6.460938 5.273438 9.523438 10.429688 8.839844 c 5.636718 -0.746094 7.34375 -7.410156 6.625 -12.445312 c -0.660156 -4.578126 -3.160156 -9.1875 -10.492188 -8.703126 z m 0 0" fill="url(#e)"/>
                    <path d="m 64.59375 24.402344 c -5.179688 0.335937 -7.660156 6.308594 -6.558594 12.308594 c 1.183594 6.460937 5.273438 9.523437 10.429688 8.839843 c 5.636718 -0.746093 7.34375 -7.410156 6.625 -12.445312 c -0.660156 -4.578125 -3.160156 -9.1875 -10.496094 -8.703125 z m 0 0" fill="#e66100"/>
                    <path d="m 70.691406 35.347656 c 0 2.820313 -1.511718 5.179688 -3.90625 5.109375 c -3.253906 -0.097656 -4.101562 -3.082031 -4.035156 -5.59375 c 0.074219 -2.9375 1.769531 -4.328125 4.195312 -4.261719 c 2.160157 0.050782 3.746094 1.925782 3.746094 4.746094 z m 0 0" fill="#060401"/>
                    <path d="m 43.335938 36.902344 c 0 2.9375 -1.511719 5.390625 -3.90625 5.3125 c -3.253907 -0.09375 -4.101563 -3.207032 -4.035157 -5.824219 c 0.074219 -3.0625 2.097657 -4.367187 3.996094 -4.222656 c 2.15625 0.164062 3.945313 1.796875 3.945313 4.734375 z m 0 0" fill="#060401"/>
                    <path d="m 43.335938 37.574219 c 0 2.9375 -1.511719 5.390625 -3.90625 5.3125 c -3.253907 -0.097657 -4.101563 -3.207031 -4.035157 -5.824219 c 0.074219 -3.0625 2.097657 -4.367188 4 -4.222656 c 2.152344 0.164062 3.941407 1.796875 3.941407 4.734375 z m 0 0" fill="url(#f)"/>
                    <path d="m 55.757812 53.214844 s 5.945313 -0.636719 5.671876 -5.105469 c -0.273438 -4.460937 -4.304688 -4.753906 -7.449219 -4.683594 c -3.148438 0.074219 -7.652344 1.773438 -7.179688 5.527344 c 0.476563 3.757813 5.605469 4.25 5.605469 4.25 s -0.007812 2.777344 -1.777344 2.980469 c -1.914062 0.210937 -4.652344 -2.839844 -5.398437 -3.613282 c -0.75 -0.777343 -1.914063 -0.496093 -2.324219 0.140626 c -0.40625 0.632812 -0.136719 2.054687 1.03125 3.261718 c 1.164062 1.207032 3.894531 4.246094 6.632812 3.964844 c 2.738282 -0.28125 2.808594 -1.769531 3.894532 -1.839844 c 1.097656 -0.070312 1.03125 1.628906 3.757812 1.558594 c 1.925782 -0.050781 5.800782 -3.554688 6.5 -4.175781 c 1.574219 -1.421875 1.980469 -2.839844 1.300782 -3.757813 c -0.679688 -0.914062 -2.59375 0.421875 -3.621094 1.207032 c -1.03125 0.777343 -2.691406 2.609374 -4.304688 2.910156 c -2.679687 0.496094 -2.339844 -2.625 -2.339844 -2.625 z m 0 0" fill="url(#g)"/>
                    <path d="m 55.757812 52.542969 s 5.945313 -0.636719 5.671876 -5.105469 c -0.273438 -4.460938 -4.304688 -4.753906 -7.449219 -4.679688 c -3.148438 0.070313 -7.65625 1.769532 -7.179688 5.523438 c 0.476563 3.757812 5.605469 4.25 5.605469 4.25 s -0.011719 2.777344 -1.777344 2.980469 c -1.914062 0.210937 -4.652344 -2.839844 -5.402344 -3.613281 c -0.746093 -0.777344 -1.910156 -0.496094 -2.320312 0.140624 c -0.40625 0.632813 -0.136719 2.054688 1.03125 3.261719 c 1.164062 1.207031 3.894531 4.246094 6.632812 3.964844 c 2.738282 -0.28125 2.808594 -1.769531 3.894532 -1.839844 c 1.097656 -0.070312 1.03125 1.628907 3.757812 1.558594 c 1.925782 -0.050781 5.800782 -3.554687 6.5 -4.175781 c 1.574219 -1.421875 1.980469 -2.839844 1.300782 -3.757813 c -0.679688 -0.914062 -2.59375 0.421875 -3.621094 1.207031 c -1.03125 0.777344 -2.691406 2.609376 -4.304688 2.910157 c -2.679687 0.496093 -2.339844 -2.625 -2.339844 -2.625 z m 0 0" fill="#060401"/>
                    <path d="m 79.089844 47.601562 s -1.238282 2.820313 -2.273438 5.082032 c -1.25 2.726562 -3.039062 5.101562 -3.039062 5.101562 s 2.023437 14.335938 14.054687 13.101563 c 4.304688 -0.445313 7.570313 -3.941407 7.875 -7.652344 c 0.523438 -6.261719 -1.769531 -9.1875 -5.332031 -12.046875 c -5.769531 -4.617188 -11.285156 -3.585938 -11.285156 -3.585938 z m 0 0" fill="url(#i)"/>
                    <path d="m 79.089844 46.929688 s -1.238282 2.820312 -2.273438 5.082031 c -1.25 2.726562 -3.039062 5.101562 -3.039062 5.101562 s 2.023437 14.335938 14.054687 13.101563 c 4.304688 -0.445313 7.570313 -3.941406 7.875 -7.652344 c 0.523438 -6.261719 -1.769531 -9.1875 -5.328125 -12.046875 c -5.773437 -4.617187 -11.289062 -3.585937 -11.289062 -3.585937 z m 0 0" fill="#e66100"/>
                    <path d="m 70.757812 70.023438 c -2.136718 2.03125 -0.988281 5.847656 1.835938 6.261718 c 2.824219 0.40625 4.34375 -2.027344 4.128906 -3.875 c -0.316406 -2.859375 -3.53125 -4.695312 -5.964844 -2.386718 z m 0 0" fill="url(#k)"/>
                    <path d="m 70.757812 69.355469 c -2.136718 2.027343 -0.988281 5.84375 1.835938 6.257812 c 2.824219 0.40625 4.34375 -2.027343 4.128906 -3.875 c -0.316406 -2.859375 -3.535156 -4.691406 -5.964844 -2.382812 z m 0 0" fill="#e66100"/>
                    <path d="m 42.878906 66.257812 s -1.882812 5.351563 2.097656 12.054688 c 1.695313 2.851562 5.46875 4.453125 8.136719 4.347656 c 2.8125 -0.105468 5.359375 -1.121094 7.539063 -3.941406 c 3.476562 -4.492188 2.488281 -11.96875 2.488281 -11.96875 s -5.507813 2.347656 -10.558594 2.171875 c -5.378906 -0.171875 -9.703125 -2.664063 -9.703125 -2.664063 z m 0 0" fill="url(#l)"/>
                    <path d="m 42.878906 65.585938 s -1.882812 5.351562 2.097656 12.058593 c 1.695313 2.847657 5.46875 4.453125 8.136719 4.347657 c 2.8125 -0.109376 5.359375 -1.121094 7.539063 -3.941407 c 3.476562 -4.496093 2.488281 -11.972656 2.488281 -11.972656 s -5.507813 2.347656 -10.558594 2.175781 c -5.378906 -0.175781 -9.703125 -2.667968 -9.703125 -2.667968 z m 0 0" fill="#e66100"/>
                    <path d="m 35.992188 107.308594 c -1.371094 -0.433594 -1.917969 1.769531 -2.011719 3.167968 c -0.09375 1.402344 -0.085938 3.21875 1.136719 3.671876 c 1.21875 0.453124 0.976562 -2.242188 1.089843 -3.128907 c 0.222657 -1.710937 1.230469 -3.257812 -0.214843 -3.710937 z m 0 0" fill="url(#m)"/>
                    <path d="m 35.992188 107.023438 c -1.371094 -0.433594 -1.917969 1.769531 -2.011719 3.167968 c -0.09375 1.402344 -0.085938 3.21875 1.136719 3.671875 c 1.21875 0.453125 0.976562 -2.242187 1.089843 -3.128906 c 0.222657 -1.710937 1.230469 -3.257813 -0.214843 -3.710937 z m 0 0" fill="#e66100"/>
                    <path d="m 41.371094 108.160156 c -0.820313 -0.039062 -1.6875 0.820313 -1.789063 3.3125 c -0.085937 2.085938 0 3.808594 1.136719 3.902344 c 1.527344 0.128906 1.097656 -1.902344 1.183594 -3.582031 c 0.035156 -0.957031 1.171875 -3.546875 -0.53125 -3.632813 z m 0 0" fill="url(#n)"/>
                    <path d="m 41.371094 107.84375 c -0.820313 -0.035156 -1.6875 0.824219 -1.789063 3.316406 c -0.085937 2.085938 0 3.804688 1.136719 3.902344 c 1.527344 0.125 1.097656 -1.902344 1.183594 -3.585938 c 0.039062 -0.957031 1.175781 -3.542968 -0.53125 -3.632812 z m 0 0" fill="#e66100"/>
                    <path d="m 62.613281 110.5625 c -1.3125 0 -1.351562 1.546875 -1.351562 3.21875 c 0 1.679688 -0.335938 3.757812 1.136719 3.941406 c 1.789062 0.222656 1.445312 -2.273437 1.445312 -3.671875 c -0.007812 -1.21875 0.203125 -3.488281 -1.230469 -3.488281 z m 0 0" fill="url(#o)"/>
                    <path d="m 62.613281 110.261719 c -1.3125 0 -1.351562 1.546875 -1.351562 3.21875 c 0 1.679687 -0.335938 3.757812 1.136719 3.941406 c 1.789062 0.222656 1.445312 -2.269531 1.445312 -3.671875 c -0.007812 -1.21875 0.207031 -3.488281 -1.230469 -3.488281 z m 0 0" fill="#e66100"/>
                    <path d="m 68.558594 110.246094 c -1.050782 0.222656 -0.957032 1.71875 -0.921875 3.535156 c 0.046875 1.816406 -0.214844 3.738281 1.269531 3.585938 c 1.265625 -0.136719 1.183594 -2.273438 1.136719 -3.90625 c -0.039063 -1.410157 0.136719 -3.574219 -1.484375 -3.214844 z m 0 0" fill="url(#p)"/>
                    <path d="m 68.558594 109.953125 c -1.050782 0.222656 -0.957032 1.71875 -0.921875 3.535156 c 0.046875 1.816407 -0.214844 3.738281 1.269531 3.585938 c 1.265625 -0.136719 1.183594 -2.269531 1.136719 -3.902344 c -0.039063 -1.410156 0.140625 -3.574219 -1.484375 -3.21875 z m 0 0" fill="#e66100"/>
                    <path d="m 86.335938 99.257812 c -0.902344 -0.183593 -1.929688 0.605469 -2.191407 2.722657 c -0.210937 1.816406 -0.128906 3.410156 1.398438 3.757812 c 0.785156 0.183594 0.925781 -1.902343 0.960937 -3.398437 c 0.046875 -1.296875 0.96875 -2.851563 -0.167968 -3.082032 z m 0 0" fill="url(#q)"/>
                    <path d="m 86.335938 98.957031 c -0.902344 -0.183593 -1.929688 0.609375 -2.1875 2.722657 c -0.214844 1.816406 -0.132813 3.410156 1.394531 3.757812 c 0.785156 0.183594 0.925781 -1.902344 0.960937 -3.398438 c 0.046875 -1.296874 0.96875 -2.851562 -0.167968 -3.082031 z m 0 0" fill="#e66100"/>
                    <path d="m 91.277344 100.355469 c -0.867188 -0.144531 -1.714844 0.40625 -1.9375 2.660156 c -0.132813 1.3125 -0.597656 3.671875 0.976562 3.757813 c 1.222656 0.058593 1.128906 -2.019532 1.242188 -3.101563 c 0.175781 -1.710937 1.144531 -3.0625 -0.28125 -3.316406 z m 0 0" fill="url(#r)"/>
                    <path d="m 91.277344 100.058594 c -0.867188 -0.144532 -1.714844 0.40625 -1.9375 2.65625 c -0.132813 1.3125 -0.597656 3.671875 0.976562 3.757812 c 1.222656 0.058594 1.128906 -2.019531 1.238282 -3.101562 c 0.179687 -1.710938 1.148437 -3.0625 -0.277344 -3.3125 z m 0 0" fill="#e66100"/>
                </g>
            </g>
        </g>
    </mask>
    <mask id="v">
        <g filter="url(#a)">
            <rect fill-opacity="0.8" height="184.32" width="184.32" x="-28.16" y="-28.16"/>
        </g>
    </mask>
    <linearGradient id="w" gradientTransform="matrix(0 0.37 -0.98462 0 295.38501 -30.360001)" gradientUnits="userSpaceOnUse" x1="300" x2="428" y1="235" y2="235">
        <stop offset="0" stop-color="#f9f06b"/>
        <stop offset="1" stop-color="#f5c211"/>
    </linearGradient>
    <clipPath id="x">
        <rect height="128" width="128"/>
    </clipPath>
    <clipPath id="y">
        <rect height="128" width="128"/>
    </clipPath>
    <path d="m 33.164062 60.085938 s -1.394531 6.421874 -0.089843 13.480468 c 1.3125 7.0625 2.652343 13.902344 2.652343 13.902344 s 0.058594 13.769531 -0.332031 15.265625 c -0.394531 1.496094 -3.414062 3.394531 -3.414062 6.113281 c 0 2.722656 0.960937 6.15625 5.816406 6.976563 c 4.855469 0.820312 8.789063 -0.859375 10.414063 -2.894531 c 2.335937 -2.941407 1.882812 -5.027344 1.882812 -7.195313 c 0 -2.171875 0.128906 -14.664063 0.652344 -16.574219 c 0.519531 -1.898437 1.3125 -2.988281 2.757812 -2.855468 c 1.445313 0.136718 3.019532 2.441406 3.148438 6.792968 c 0.132812 4.339844 0.261718 11.953125 0.132812 13.445313 c -0.132812 1.496093 -1.445312 6.523437 -0.390625 8.558593 c 1.050781 2.035157 5.816407 4.011719 9.488281 3.800782 c 4.808594 -0.269532 7.699219 -3.398438 7.957032 -5.835938 c 0.261718 -2.441406 -1.3125 -8.015625 -1.3125 -9.648437 c 0 -1.628907 1.835937 -12.761719 2.359375 -13.445313 c 0.519531 -0.675781 2.125 -0.53125 5.636719 -2.171875 c 3.199218 -1.496093 4.925781 -3.054687 4.925781 -3.054687 s 0.003906 10.21875 -0.125 11.296875 c -0.148438 1.085937 -2.628907 3.222656 -2.996094 5.90625 c -0.28125 2.039062 1.621094 5.40625 6.4375 5.554687 c 5.660156 0.671875 9.808594 -3.382812 10.984375 -6.765625 c 1.507812 -3.839843 0.929688 -8.015625 0.667969 -10.203125 c -0.34375 -2.863281 -0.378907 -9.421875 -0.222657 -11.449218 c 0.15625 -2.050782 0.8125 -5.074219 0.9375 -6.289063 c 0.011719 -1.6875 0.007813 -1.660156 0.019532 -1.664063 c 0 0 4.101562 -0.105468 6.785156 -1.941406 c 2.683594 -1.832031 5.507812 -5.023437 6.757812 -8.960937 c 1.21875 -3.847657 1.070313 -6.371094 0.015626 -6.507813 c -1.050782 -0.132812 -5.917969 8.0625 -9.925782 8.273438 c -6.363281 0.339844 -5.730468 -6.722656 -10.585937 -10.996094 c -5.472657 -4.824219 -14.328125 -5.636719 -14.328125 -5.636719 s 1.472656 -5.703125 1.492187 -9.917969 c 0.066407 -18.40625 -8.265625 -24.441406 -8.265625 -24.441406 s -10.414062 -8.023437 -22.222656 -7.484375 c -11.808594 0.539063 -20.46875 10.253907 -20.46875 10.253907 l -5.992188 29.339843 s 1.511719 5.992188 4.8125 10.015625 c 3.304688 4.066406 4.066407 5.742188 4.066407 5.742188 z m 0 0" fill="url(#b)"/>
    <path d="m 33.164062 58.679688 s -2.226562 6.664062 -0.921874 13.738281 c 1.316406 7.070312 3.152343 13.601562 3.152343 13.601562 s 0.390625 13.871094 0 15.371094 c -0.394531 1.496094 -3.433593 4.648437 -3.433593 7.371094 c 0 2.726562 0.980468 4.917969 5.835937 5.738281 s 8.789063 -0.859375 10.414063 -2.898438 c 2.339843 -2.945312 1.882812 -5.035156 1.882812 -7.207031 s 0.128906 -14.683593 0.652344 -16.597656 c 0.519531 -1.902344 1.3125 -2.996094 2.757812 -2.859375 c 1.445313 0.136719 3.019532 2.445312 3.148438 6.800781 c 0.132812 4.347657 0.261718 11.96875 0.132812 13.46875 c -0.132812 1.496094 -1.445312 6.53125 -0.390625 8.570313 c 1.050781 2.035156 5.816407 4.015625 9.488281 3.804687 c 4.808594 -0.269531 7.699219 -3.402343 7.957032 -5.84375 c 0.261718 -2.445312 -1.3125 -8.03125 -1.3125 -9.664062 c 0 -1.632813 1.835937 -12.78125 2.359375 -13.464844 c 0.519531 -0.675781 2.125 -0.53125 5.636719 -2.175781 c 3.199218 -1.496094 4.902343 -2.992188 4.902343 -2.992188 s 0.355469 12.796875 -0.3125 13.101563 c -1.9375 2.816406 -2.417969 3.203125 -1.996093 5.800781 c 0.394531 2.453125 2.597656 3.738281 5.339843 4 c 4.632813 0.453125 9.527344 -2.257812 10.820313 -7.273438 c 1.183594 -3.265624 0.652344 -7.339843 0.390625 -9.515624 c -0.257813 -2.171876 -0.257813 -9.796876 0 -11.835938 c 0.261719 -2.035156 0.691406 -3.273438 0.859375 -4.347656 c 0.261718 -1.765625 0.195312 -3.738282 0.195312 -3.738282 s 4.53125 0 7.214844 -1.835937 c 2.683594 -1.832031 5.507812 -5.03125 6.757812 -8.972656 c 1.222657 -3.855469 0.921876 -5.035157 -0.128906 -5.167969 c -1.054687 -0.136719 -5.769531 6.722656 -9.78125 6.933594 c -6.363281 0.339844 -5.730468 -6.730469 -10.585937 -11.011719 c -5.472657 -4.832031 -14 -5.441406 -14 -5.441406 s 1.472656 -5.707031 1.492187 -9.929688 c 0.0625 -18.433593 -8.59375 -24.683593 -8.59375 -24.683593 s -10.414062 -8.039063 -22.222656 -7.496094 c -11.808594 0.539062 -20.46875 10.269531 -20.46875 10.269531 l -6.496094 29.714844 s 1.640625 5.710937 4.269532 9.867187 c 2.757812 4.34375 4.984374 6.800782 4.984374 6.800782 z m 0 0" fill="#ffa348"/>
    <path d="m 24.960938 6.378906 c -9.644532 0.203125 -14.742188 8.722656 -14.894532 13.941406 c -0.082031 3.0625 -1.246094 25.320313 10.628906 25.773438 c 4.761719 0.183594 8.304688 -5.546875 10.101563 -12.039062 c 2.265625 -8.179688 2.164063 -16.382813 2.425781 -18.566407 c 0.417969 -3.488281 1.117188 -6.046875 1.117188 -6.046875 s -1.175782 -3.238281 -9.378906 -3.0625 z m 0 0" fill="url(#c)"/>
    <path d="m 24.964844 5.707031 c -9.648438 0.203125 -14.746094 8.722657 -14.894532 13.941407 c -0.085937 3.0625 -1.25 25.320312 10.625 25.773437 c 4.761719 0.183594 8.304688 -5.542969 10.101563 -12.035156 c 2.265625 -8.183594 2.164063 -16.386719 2.425781 -18.570313 c 0.417969 -3.488281 1.117188 -6.046875 1.117188 -6.046875 s -1.175782 -3.238281 -9.375 -3.0625 z m 0 0" fill="#865e3c"/>
    <path d="m 76.601562 3.113281 c 10.496094 0.40625 14.074219 5.226563 15.089844 8.027344 c 1.117188 3.0625 2.097656 13.988281 0.457032 21.28125 c -1.332032 5.953125 -3.347657 8.976563 -8.070313 8.773437 c -4.328125 -0.183593 -6.515625 -6.648437 -9.78125 -15.4375 c -3.148437 -8.503906 -5.351563 -16.871093 -5.761719 -17.960937 c -0.523437 -1.429687 -1.640625 -2.039063 -1.640625 -2.039063 s 1.886719 -2.953124 9.707031 -2.644531 z m 0 0" fill="url(#d)"/>
    <path d="m 76.601562 2.304688 c 10.496094 0.40625 14.074219 5.226562 15.089844 8.03125 c 1.117188 3.0625 2.097656 13.988281 0.457032 21.28125 c -1.332032 5.953124 -3.347657 8.976562 -8.074219 8.773437 c -4.324219 -0.183594 -6.511719 -6.648437 -9.777344 -15.4375 c -3.148437 -8.503906 -5.5625 -16.117187 -5.972656 -17.207031 c -0.523438 -1.429688 -1.640625 -2.039063 -1.640625 -2.039063 s 2.097656 -3.710937 9.917968 -3.402343 z m 0 0" fill="#865e3c"/>
    <path d="m 64.597656 25.070312 c -5.183594 0.335938 -7.664062 6.308594 -6.5625 12.308594 c 1.183594 6.460938 5.273438 9.523438 10.429688 8.839844 c 5.636718 -0.746094 7.34375 -7.410156 6.625 -12.445312 c -0.660156 -4.578126 -3.160156 -9.1875 -10.492188 -8.703126 z m 0 0" fill="url(#e)"/>
    <path d="m 64.59375 24.402344 c -5.179688 0.335937 -7.660156 6.308594 -6.558594 12.308594 c 1.183594 6.460937 5.273438 9.523437 10.429688 8.839843 c 5.636718 -0.746093 7.34375 -7.410156 6.625 -12.445312 c -0.660156 -4.578125 -3.160156 -9.1875 -10.496094 -8.703125 z m 0 0" fill="#e66100"/>
    <path d="m 70.691406 35.347656 c 0 2.820313 -1.511718 5.179688 -3.90625 5.109375 c -3.253906 -0.097656 -4.101562 -3.082031 -4.035156 -5.59375 c 0.074219 -2.9375 1.769531 -4.328125 4.195312 -4.261719 c 2.160157 0.050782 3.746094 1.925782 3.746094 4.746094 z m 0 0" fill="#060401"/>
    <path d="m 43.335938 36.902344 c 0 2.9375 -1.511719 5.390625 -3.90625 5.3125 c -3.253907 -0.09375 -4.101563 -3.207032 -4.035157 -5.824219 c 0.074219 -3.0625 2.097657 -4.367187 3.996094 -4.222656 c 2.15625 0.164062 3.945313 1.796875 3.945313 4.734375 z m 0 0" fill="#060401"/>
    <path d="m 43.335938 37.574219 c 0 2.9375 -1.511719 5.390625 -3.90625 5.3125 c -3.253907 -0.097657 -4.101563 -3.207031 -4.035157 -5.824219 c 0.074219 -3.0625 2.097657 -4.367188 4 -4.222656 c 2.152344 0.164062 3.941407 1.796875 3.941407 4.734375 z m 0 0" fill="url(#f)"/>
    <path d="m 55.757812 53.214844 s 5.945313 -0.636719 5.671876 -5.105469 c -0.273438 -4.460937 -4.304688 -4.753906 -7.449219 -4.683594 c -3.148438 0.074219 -7.652344 1.773438 -7.179688 5.527344 c 0.476563 3.757813 5.605469 4.25 5.605469 4.25 s -0.007812 2.777344 -1.777344 2.980469 c -1.914062 0.210937 -4.652344 -2.839844 -5.398437 -3.613282 c -0.75 -0.777343 -1.914063 -0.496093 -2.324219 0.140626 c -0.40625 0.632812 -0.136719 2.054687 1.03125 3.261718 c 1.164062 1.207032 3.894531 4.246094 6.632812 3.964844 c 2.738282 -0.28125 2.808594 -1.769531 3.894532 -1.839844 c 1.097656 -0.070312 1.03125 1.628906 3.757812 1.558594 c 1.925782 -0.050781 5.800782 -3.554688 6.5 -4.175781 c 1.574219 -1.421875 1.980469 -2.839844 1.300782 -3.757813 c -0.679688 -0.914062 -2.59375 0.421875 -3.621094 1.207032 c -1.03125 0.777343 -2.691406 2.609374 -4.304688 2.910156 c -2.679687 0.496094 -2.339844 -2.625 -2.339844 -2.625 z m 0 0" fill="url(#g)"/>
    <path d="m 55.757812 52.542969 s 5.945313 -0.636719 5.671876 -5.105469 c -0.273438 -4.460938 -4.304688 -4.753906 -7.449219 -4.679688 c -3.148438 0.070313 -7.65625 1.769532 -7.179688 5.523438 c 0.476563 3.757812 5.605469 4.25 5.605469 4.25 s -0.011719 2.777344 -1.777344 2.980469 c -1.914062 0.210937 -4.652344 -2.839844 -5.402344 -3.613281 c -0.746093 -0.777344 -1.910156 -0.496094 -2.320312 0.140624 c -0.40625 0.632813 -0.136719 2.054688 1.03125 3.261719 c 1.164062 1.207031 3.894531 4.246094 6.632812 3.964844 c 2.738282 -0.28125 2.808594 -1.769531 3.894532 -1.839844 c 1.097656 -0.070312 1.03125 1.628907 3.757812 1.558594 c 1.925782 -0.050781 5.800782 -3.554687 6.5 -4.175781 c 1.574219 -1.421875 1.980469 -2.839844 1.300782 -3.757813 c -0.679688 -0.914062 -2.59375 0.421875 -3.621094 1.207031 c -1.03125 0.777344 -2.691406 2.609376 -4.304688 2.910157 c -2.679687 0.496093 -2.339844 -2.625 -2.339844 -2.625 z m 0 0" fill="#060401"/>
    <path d="m 79.089844 47.601562 s -1.238282 2.820313 -2.273438 5.082032 c -1.25 2.726562 -3.039062 5.101562 -3.039062 5.101562 s 2.023437 14.335938 14.054687 13.101563 c 4.304688 -0.445313 7.570313 -3.941407 7.875 -7.652344 c 0.523438 -6.261719 -1.769531 -9.1875 -5.332031 -12.046875 c -5.769531 -4.617188 -11.285156 -3.585938 -11.285156 -3.585938 z m 0 0" fill="url(#i)"/>
    <path d="m 79.089844 46.929688 s -1.238282 2.820312 -2.273438 5.082031 c -1.25 2.726562 -3.039062 5.101562 -3.039062 5.101562 s 2.023437 14.335938 14.054687 13.101563 c 4.304688 -0.445313 7.570313 -3.941406 7.875 -7.652344 c 0.523438 -6.261719 -1.769531 -9.1875 -5.328125 -12.046875 c -5.773437 -4.617187 -11.289062 -3.585937 -11.289062 -3.585937 z m 0 0" fill="#e66100"/>
    <path d="m 70.757812 70.023438 c -2.136718 2.03125 -0.988281 5.847656 1.835938 6.261718 c 2.824219 0.40625 4.34375 -2.027344 4.128906 -3.875 c -0.316406 -2.859375 -3.53125 -4.695312 -5.964844 -2.386718 z m 0 0" fill="url(#k)"/>
    <path d="m 70.757812 69.355469 c -2.136718 2.027343 -0.988281 5.84375 1.835938 6.257812 c 2.824219 0.40625 4.34375 -2.027343 4.128906 -3.875 c -0.316406 -2.859375 -3.535156 -4.691406 -5.964844 -2.382812 z m 0 0" fill="#e66100"/>
    <path d="m 42.878906 66.257812 s -1.882812 5.351563 2.097656 12.054688 c 1.695313 2.851562 5.46875 4.453125 8.136719 4.347656 c 2.8125 -0.105468 5.359375 -1.121094 7.539063 -3.941406 c 3.476562 -4.492188 2.488281 -11.96875 2.488281 -11.96875 s -5.507813 2.347656 -10.558594 2.171875 c -5.378906 -0.171875 -9.703125 -2.664063 -9.703125 -2.664063 z m 0 0" fill="url(#l)"/>
    <path d="m 42.878906 65.585938 s -1.882812 5.351562 2.097656 12.058593 c 1.695313 2.847657 5.46875 4.453125 8.136719 4.347657 c 2.8125 -0.109376 5.359375 -1.121094 7.539063 -3.941407 c 3.476562 -4.496093 2.488281 -11.972656 2.488281 -11.972656 s -5.507813 2.347656 -10.558594 2.175781 c -5.378906 -0.175781 -9.703125 -2.667968 -9.703125 -2.667968 z m 0 0" fill="#e66100"/>
    <path d="m 35.992188 107.308594 c -1.371094 -0.433594 -1.917969 1.769531 -2.011719 3.167968 c -0.09375 1.402344 -0.085938 3.21875 1.136719 3.671876 c 1.21875 0.453124 0.976562 -2.242188 1.089843 -3.128907 c 0.222657 -1.710937 1.230469 -3.257812 -0.214843 -3.710937 z m 0 0" fill="url(#m)"/>
    <path d="m 35.992188 107.023438 c -1.371094 -0.433594 -1.917969 1.769531 -2.011719 3.167968 c -0.09375 1.402344 -0.085938 3.21875 1.136719 3.671875 c 1.21875 0.453125 0.976562 -2.242187 1.089843 -3.128906 c 0.222657 -1.710937 1.230469 -3.257813 -0.214843 -3.710937 z m 0 0" fill="#e66100"/>
    <path d="m 41.371094 108.160156 c -0.820313 -0.039062 -1.6875 0.820313 -1.789063 3.3125 c -0.085937 2.085938 0 3.808594 1.136719 3.902344 c 1.527344 0.128906 1.097656 -1.902344 1.183594 -3.582031 c 0.035156 -0.957031 1.171875 -3.546875 -0.53125 -3.632813 z m 0 0" fill="url(#n)"/>
    <path d="m 41.371094 107.84375 c -0.820313 -0.035156 -1.6875 0.824219 -1.789063 3.316406 c -0.085937 2.085938 0 3.804688 1.136719 3.902344 c 1.527344 0.125 1.097656 -1.902344 1.183594 -3.585938 c 0.039062 -0.957031 1.175781 -3.542968 -0.53125 -3.632812 z m 0 0" fill="#e66100"/>
    <path d="m 62.613281 110.5625 c -1.3125 0 -1.351562 1.546875 -1.351562 3.21875 c 0 1.679688 -0.335938 3.757812 1.136719 3.941406 c 1.789062 0.222656 1.445312 -2.273437 1.445312 -3.671875 c -0.007812 -1.21875 0.203125 -3.488281 -1.230469 -3.488281 z m 0 0" fill="url(#o)"/>
    <path d="m 62.613281 110.261719 c -1.3125 0 -1.351562 1.546875 -1.351562 3.21875 c 0 1.679687 -0.335938 3.757812 1.136719 3.941406 c 1.789062 0.222656 1.445312 -2.269531 1.445312 -3.671875 c -0.007812 -1.21875 0.207031 -3.488281 -1.230469 -3.488281 z m 0 0" fill="#e66100"/>
    <path d="m 68.558594 110.246094 c -1.050782 0.222656 -0.957032 1.71875 -0.921875 3.535156 c 0.046875 1.816406 -0.214844 3.738281 1.269531 3.585938 c 1.265625 -0.136719 1.183594 -2.273438 1.136719 -3.90625 c -0.039063 -1.410157 0.136719 -3.574219 -1.484375 -3.214844 z m 0 0" fill="url(#p)"/>
    <path d="m 68.558594 109.953125 c -1.050782 0.222656 -0.957032 1.71875 -0.921875 3.535156 c 0.046875 1.816407 -0.214844 3.738281 1.269531 3.585938 c 1.265625 -0.136719 1.183594 -2.269531 1.136719 -3.902344 c -0.039063 -1.410156 0.140625 -3.574219 -1.484375 -3.21875 z m 0 0" fill="#e66100"/>
    <path d="m 86.335938 99.257812 c -0.902344 -0.183593 -1.929688 0.605469 -2.191407 2.722657 c -0.210937 1.816406 -0.128906 3.410156 1.398438 3.757812 c 0.785156 0.183594 0.925781 -1.902343 0.960937 -3.398437 c 0.046875 -1.296875 0.96875 -2.851563 -0.167968 -3.082032 z m 0 0" fill="url(#q)"/>
    <path d="m 86.335938 98.957031 c -0.902344 -0.183593 -1.929688 0.609375 -2.1875 2.722657 c -0.214844 1.816406 -0.132813 3.410156 1.394531 3.757812 c 0.785156 0.183594 0.925781 -1.902344 0.960937 -3.398438 c 0.046875 -1.296874 0.96875 -2.851562 -0.167968 -3.082031 z m 0 0" fill="#e66100"/>
    <path d="m 91.277344 100.355469 c -0.867188 -0.144531 -1.714844 0.40625 -1.9375 2.660156 c -0.132813 1.3125 -0.597656 3.671875 0.976562 3.757813 c 1.222656 0.058593 1.128906 -2.019532 1.242188 -3.101563 c 0.175781 -1.710937 1.144531 -3.0625 -0.28125 -3.316406 z m 0 0" fill="url(#r)"/>
    <path d="m 91.277344 100.058594 c -0.867188 -0.144532 -1.714844 0.40625 -1.9375 2.65625 c -0.132813 1.3125 -0.597656 3.671875 0.976562 3.757812 c 1.222656 0.058594 1.128906 -2.019531 1.238282 -3.101562 c 0.179687 -1.710938 1.148437 -3.0625 -0.277344 -3.3125 z m 0 0" fill="#e66100"/>
    <g mask="url(#u)">
        <g clip-path="url(#y)">
            <g mask="url(#v)">
                <g clip-path="url(#x)">
                    <path d="m 128 80.640625 v 47.359375 h -128 v -47.359375 z m 0 0" fill="url(#w)"/>
                    <path d="m 13.308594 80.640625 l 47.355468 47.359375 h 21.214844 l -47.359375 -47.359375 z m 42.421875 0 l 47.363281 47.359375 h 21.214844 l -47.363282 -47.359375 z m 42.429687 0 l 29.839844 29.839844 v -21.210938 l -8.628906 -8.628906 z m -98.160156 7.90625 v 21.214844 l 18.238281 18.238281 h 21.214844 z m 0 0"/>
                </g>
            </g>
        </g>
    </g>
</svg>
